<svg width="216" height="17" viewBox="0 0 216 17" fill="none" xmlns="http://www.w3.org/2000/svg">
<g opacity="0.3">
<path d="M32.5301 0.707904C32.0872 0.803991 31.0617 0.996165 30.2692 1.16432C29.2903 1.35649 28.8008 1.57269 28.8008 1.78888C28.8008 1.98106 29.0339 2.12519 29.3602 2.12519C29.6632 2.12519 30.0128 2.31736 30.106 2.53356C30.2226 2.77377 30.3158 5.72845 30.3391 9.09149L30.3857 15.193L31.0384 15.4092C31.4113 15.5053 32.6699 15.6254 33.812 15.6494C35.7233 15.6734 36.0263 15.6254 37.1451 14.9768C38.5902 14.1601 39.3361 13.0311 39.7556 10.9892C40.012 9.86019 39.9887 9.45182 39.6391 8.22671C38.8466 5.3441 36.8188 4.26312 33.882 5.15193C33.5323 5.27203 33.4624 5.0078 33.4158 2.9179L33.3459 0.563773L32.5301 0.707904ZM35.3038 6.59323C35.6068 6.80943 35.9797 7.36193 36.1662 7.79432C36.5391 8.73117 36.5857 11.2294 36.2594 12.4786C35.9331 13.6796 34.8609 14.8567 34.0917 14.8567H33.4624V10.5328V6.20888H34.115C34.4647 6.20888 35.0007 6.37704 35.3038 6.59323Z" fill="#004A56"/>
<path d="M0.528001 0.85191C0.178379 1.21224 0.41146 1.59658 1.04078 1.71669C2.22949 1.98093 2.39265 2.34126 2.55581 5.4881C2.74227 8.61093 2.5325 13.2711 2.18288 13.9438C2.08965 14.184 1.64679 14.4482 1.22724 14.5683C0.831006 14.6884 0.481384 14.9286 0.481384 15.1208C0.481384 15.3851 1.18063 15.4571 4.39715 15.5292C8.07984 15.5772 8.28961 15.5532 8.28961 15.1448C8.28961 14.7845 8.05653 14.6404 7.38059 14.5203C6.86782 14.4482 6.42496 14.208 6.33173 13.9918C6.23849 13.7756 6.12195 12.4784 6.02872 11.1092L5.88887 8.61093L7.03097 8.75506C8.21969 8.92321 8.96555 9.52376 8.98886 10.3405C8.98886 10.6047 9.17532 10.7729 9.45502 10.7729C9.89787 10.7729 9.92118 10.6047 9.92118 8.2506C9.92118 5.89647 9.89787 5.72832 9.45502 5.72832C9.19863 5.72832 8.98886 5.87245 8.98886 6.06463C8.98886 6.23278 8.73247 6.66517 8.40615 7.0255C7.98661 7.50593 7.61368 7.65006 6.89112 7.65006H5.9588V5.27191C5.9588 3.95071 6.02872 2.72561 6.09865 2.50941C6.21519 2.22115 6.58812 2.12506 7.77683 2.12506C9.59487 2.12506 10.5738 2.74963 11.2264 4.28702C11.7159 5.44006 12.3219 5.4881 12.4385 4.40713C12.4851 4.02278 12.4618 3.01387 12.3685 2.19713L12.2054 0.683758H6.44827C3.27836 0.683758 0.597925 0.755823 0.528001 0.85191Z" fill="#004A56"/>
<path d="M15.3986 4.64742C15.2821 4.69546 14.746 4.86361 14.2332 4.98372C12.2753 5.5122 10.8535 7.69818 10.8535 10.1964C10.8535 12.5265 11.8091 14.3522 13.534 15.289C14.6061 15.8656 17.2633 15.7695 18.4753 15.1449C21.3888 13.6075 22.0181 8.75513 19.6407 6.0647C18.8249 5.12785 16.3309 4.28709 15.3986 4.64742ZM17.17 6.66524C18.0324 8.34676 17.9159 12.9109 16.9836 14.2561C15.3054 16.6343 13.464 11.9981 14.373 7.67415C14.8159 5.48818 16.2843 4.9597 17.17 6.66524Z" fill="#004A56"/>
<path d="M25.2815 4.62323C25.1883 4.74334 21.5988 5.48802 21.1793 5.48802C21.1327 5.48802 21.1094 5.65617 21.1094 5.84834C21.1094 6.04052 21.2492 6.20867 21.4357 6.20867C22.2748 6.20867 22.5079 7.16954 22.5079 10.4845V13.7035L21.8086 14.3761C21.4357 14.7364 21.1094 15.1688 21.1094 15.3129C21.1094 15.4811 22.1349 15.5771 24.256 15.5771C26.7033 15.5771 27.4026 15.5051 27.4026 15.2649C27.4026 15.0967 27.053 14.7844 26.6567 14.5923C25.7244 14.1839 25.6078 13.7035 25.5612 10.3644C25.5379 8.08237 25.5845 7.89019 26.0274 7.62595C26.4936 7.38573 27.1695 7.40976 28.2417 7.77008C28.6845 7.91421 28.8011 7.77008 29.2439 6.59302C29.5236 5.84834 29.7334 5.17573 29.7334 5.10367C29.7334 5.05563 29.4537 4.88747 29.1041 4.74334C28.2417 4.40704 26.7266 5.0316 26.1206 5.96845L25.6545 6.6891L25.5379 5.5841C25.468 4.98356 25.3515 4.55117 25.2815 4.62323Z" fill="#004A56"/>
<path d="M53.2745 4.88758C51.5031 5.48812 50.7106 6.52106 50.7106 8.20258C50.7106 9.59584 51.3632 10.2925 53.6008 11.3494C54.976 11.998 55.3956 12.3103 55.5121 12.8148C55.6753 13.4874 55.1858 14.2561 54.4166 14.4963C53.3211 14.8566 51.7595 13.7276 51.3166 12.2623C51.2234 11.974 50.9903 11.7338 50.8039 11.7338C50.5475 11.7338 50.4775 12.1181 50.4775 13.3673V15.0248L51.4565 15.3611C51.9926 15.5292 53.1813 15.6733 54.067 15.6733C56.5377 15.6733 57.9128 14.7845 58.4023 12.8868C58.7985 11.4455 58.1226 10.1003 56.6309 9.37964C54.6963 8.41877 54.0903 8.08247 53.8106 7.69812C53.0881 6.7853 53.764 5.72834 55.0226 5.72834C55.8384 5.72834 56.794 6.61714 57.1204 7.65008C57.1903 7.91432 57.4234 8.13051 57.6098 8.13051C57.8662 8.13051 57.9361 7.77019 57.9361 6.68921V5.27193L57.0737 5.03171C55.4189 4.5753 54.3234 4.52725 53.2745 4.88758Z" fill="#004A56"/>
<path d="M43.8347 5.03181C43.0423 5.248 41.3874 6.66528 41.3874 7.09768C41.3874 7.24181 41.2475 7.40996 41.1077 7.458C40.8979 7.53007 40.8047 8.29876 40.8047 10.1004C40.8047 12.4785 40.828 12.6467 41.4573 13.5115C41.8302 13.9919 42.5528 14.6885 43.0889 15.0248C43.9047 15.5533 44.3242 15.6494 45.6994 15.6494C47.1911 15.6494 47.4708 15.5773 48.5663 14.8327C49.3122 14.3282 49.755 13.8718 49.7084 13.6556C49.6385 13.2713 49.5219 13.2953 48.0302 13.8238C47.2377 14.112 46.958 14.112 46.1656 13.8238C45.0002 13.4154 44.0212 12.1422 43.8114 10.821L43.6483 9.81213H46.8648H50.058L49.9182 8.75518C49.6618 6.97757 48.9858 5.84854 47.8437 5.27202C46.7716 4.74354 45.1167 4.64746 43.8347 5.03181ZM46.3986 6.61724C46.5851 7.09768 46.7483 7.77028 46.7483 8.15463C46.7483 8.85126 46.7483 8.85126 45.2332 8.85126H43.7415L43.8814 8.05854C44.1611 6.47311 45.0235 5.36811 45.746 5.65637C45.9325 5.72844 46.2122 6.16083 46.3986 6.61724Z" fill="#004A56"/>
</g>
<g opacity="0.3">
<path d="M67 5.58423L72.8316 11.4159" stroke="#004A56"/>
<path d="M72.832 5.58423L67.0004 11.4159" stroke="#004A56"/>
</g>
<g opacity="0.3" clip-path="url(#clip0_858_31237)">
<path d="M102.926 16.9999C102.932 16.896 102.941 16.7925 102.941 16.6886C102.941 14.0272 102.931 11.3653 102.952 8.70392C102.957 8.14421 103.027 7.58699 103.162 7.04337C103.476 5.7774 104.358 5.0744 105.612 4.79243C106.632 4.5629 107.663 4.54847 108.697 4.63989C109.09 4.67348 109.479 4.73588 109.863 4.82659C111.134 5.13262 111.862 5.96024 112.137 7.20986C112.359 8.21552 112.306 9.23514 112.278 10.2499C112.265 10.7687 112.198 11.2847 112.077 11.7897C111.792 12.9671 111.044 13.724 109.843 14.006C108.784 14.2548 107.717 14.2947 106.653 14.0445C106.383 13.9815 106.128 13.852 105.863 13.7524C105.852 13.7584 105.842 13.7676 105.836 13.7789C105.836 14.8522 105.836 15.9254 105.836 16.9985H102.923L102.926 16.9999ZM105.788 9.42761L105.825 9.43001C105.825 9.71872 105.812 10.0074 105.828 10.2961C105.84 10.5834 105.872 10.8695 105.925 11.1521C106.022 11.6333 106.328 11.9495 106.822 12.0029C107.294 12.0601 107.771 12.0725 108.246 12.0399C108.894 11.987 109.231 11.68 109.294 11.0434C109.37 10.2735 109.376 9.49401 109.388 8.71835C109.386 8.39033 109.356 8.06306 109.298 7.74012C109.204 7.15501 108.938 6.8586 108.348 6.78354C107.884 6.72169 107.414 6.71539 106.948 6.76477C106.293 6.83935 106.019 7.10448 105.916 7.75552C105.83 8.3055 105.828 8.87185 105.788 9.42761Z" fill="#004A56"/>
<path d="M80.832 3.91192C80.9175 3.54141 81.0083 3.17187 81.0879 2.79992C81.1613 2.45636 81.2244 2.10991 81.289 1.76442C81.3142 1.62921 81.371 1.56666 81.5317 1.56714C85.181 1.57227 88.8303 1.57388 92.4796 1.57195C92.5335 1.57195 92.5878 1.58302 92.6636 1.59072C92.5101 2.33943 92.3586 3.07323 92.211 3.8075C92.179 3.96629 92.0654 3.94608 91.9503 3.94608H88.576C88.2444 3.94608 88.2439 3.94608 88.2439 4.26703C88.2439 7.38602 88.2455 10.505 88.2487 13.624C88.2487 13.8521 88.1919 13.9276 87.9535 13.9238C87.1688 13.9098 86.3836 13.9185 85.5989 13.9185C85.2513 13.9185 85.2508 13.9185 85.2508 13.5817C85.2508 10.5108 85.2508 7.43991 85.2508 4.36904C85.2508 4.28098 85.2697 4.18523 85.2411 4.1068C85.2178 4.04328 85.1372 3.95571 85.0813 3.95571C83.6659 3.95186 82.2504 3.95571 80.8349 3.96196V3.91384L80.832 3.91192Z" fill="#004A56"/>
<path d="M166.887 13.9339V13.6318C166.887 11.8674 166.887 10.1031 166.887 8.33881C166.887 8.1704 166.887 8.00199 166.876 7.83406C166.835 7.25664 166.589 6.94003 166.018 6.8717C165.562 6.81425 165.1 6.81425 164.644 6.8717C164.022 6.9535 163.733 7.3139 163.673 7.95098C163.652 8.17425 163.641 8.39896 163.641 8.62463C163.638 10.2927 163.638 11.9608 163.641 13.6289V13.933H160.73V1.04224H163.637V5.19191C164.132 4.85531 164.71 4.65597 165.309 4.6145C166.232 4.53558 167.154 4.54088 168.039 4.86712C169.136 5.27082 169.705 6.07776 169.781 7.21334C169.83 7.91634 169.807 8.62367 169.809 9.33052C169.812 10.7577 169.809 12.1849 169.809 13.613V13.9378H166.887V13.9339Z" fill="#004A56"/>
<path d="M117.162 3.96393V6.69028H122.619L122.145 9.10098H117.162V13.9291C117.075 13.9383 117.013 13.9498 116.95 13.9498C116.084 13.9498 115.218 13.946 114.353 13.9546C114.17 13.9546 114.119 13.8983 114.119 13.7212C114.123 9.73613 114.125 5.75118 114.123 1.76639C114.123 1.7048 114.135 1.64273 114.142 1.57007H123.371C123.264 2.12102 123.158 2.66042 123.052 3.19933C123.016 3.38026 122.96 3.55877 122.946 3.74114C122.931 3.93361 122.838 3.96826 122.664 3.9673C120.932 3.962 119.201 3.96393 117.468 3.96393H117.161H117.162Z" fill="#004A56"/>
<path d="M101.348 9.47641C101.277 10.1428 101.242 10.881 101.112 11.6023C100.878 12.9067 100.056 13.7031 98.7641 13.9875C97.3603 14.2964 95.9434 14.2891 94.5323 14.0168C93.0935 13.7392 92.2234 12.8745 91.9927 11.443C91.7733 10.0807 91.7733 8.69261 91.9927 7.33036C92.2205 5.90559 93.0824 5.04284 94.5177 4.77627C95.9686 4.50633 97.4234 4.49526 98.8675 4.83064C100.213 5.14341 100.949 6.03359 101.156 7.35105C101.26 8.02807 101.282 8.71904 101.348 9.47641ZM98.4028 9.52453C98.3737 8.91343 98.3611 8.42504 98.3247 7.93664C98.2717 7.22354 97.9702 6.85688 97.2778 6.76642C96.8203 6.70828 96.3572 6.70828 95.8997 6.76642C95.2141 6.85255 94.9183 7.1326 94.8581 7.82501C94.7838 8.68391 94.7926 9.55099 94.7882 10.4147C94.7943 10.6864 94.8326 10.9564 94.9023 11.2192C95.0096 11.6687 95.3063 11.9607 95.772 12.0055C96.253 12.0595 96.7379 12.0713 97.2209 12.0406C97.8789 11.9877 98.1785 11.7076 98.2805 11.0542C98.365 10.5081 98.3708 9.9547 98.4028 9.52453Z" fill="#004A56"/>
<path d="M136.308 8.5909C136.275 8.26755 136.271 8.01781 136.219 7.77819C136.116 7.30615 135.758 7.02274 135.13 6.99579C134.129 6.95297 133.126 6.95874 132.123 6.94768C131.753 6.94335 131.383 6.94768 130.983 6.94768L131.395 4.85985C131.471 4.85311 131.534 4.84204 131.598 4.84204C132.835 4.83819 134.074 4.80692 135.31 4.84445C135.891 4.86616 136.467 4.95728 137.026 5.11583C138.366 5.48971 139.073 6.41501 139.093 7.79888C139.115 9.3295 139.109 10.8611 139.093 12.3917C139.084 13.3541 138.598 13.866 137.62 13.9113C136.667 13.9551 135.712 13.9541 134.758 13.9483C134.039 13.9435 133.319 13.9166 132.602 13.8656C132.297 13.8361 131.996 13.7675 131.708 13.6615C130.786 13.3454 130.246 12.6992 130.168 11.733C130.12 11.2311 130.126 10.7257 130.184 10.225C130.305 9.29438 130.873 8.69435 131.761 8.3965C132.648 8.09865 133.569 8.07219 134.494 8.12993C135.104 8.16554 135.694 8.28054 136.308 8.5909ZM136.234 11.9996C136.245 11.9683 136.252 11.9361 136.256 11.9033C136.256 11.5665 136.264 11.2297 136.251 10.8928C136.231 10.3814 136.024 10.0874 135.513 10.0397C134.891 9.9815 134.26 10.0065 133.633 10.0282C133.515 10.0325 133.399 10.067 133.298 10.1283C133.197 10.1897 133.113 10.2758 133.055 10.3785C132.623 11.1108 133.043 11.9514 133.885 11.9914C134.626 12.027 135.37 12.0121 136.113 12.0178C136.154 12.0153 136.194 12.0091 136.234 11.9996Z" fill="#004A56"/>
<path d="M188.686 10.3188C188.759 10.6402 188.793 10.9202 188.887 11.1791C189.022 11.5511 189.352 11.7041 189.72 11.7517C190.041 11.7911 190.364 11.8105 190.687 11.8099C191.756 11.8143 192.824 11.8071 193.892 11.8042H194.156C194.023 12.4898 193.897 13.1558 193.759 13.8193C193.746 13.8526 193.725 13.8821 193.697 13.9051C193.669 13.9281 193.636 13.9439 193.601 13.9512C192.016 13.9574 190.43 14.0705 188.849 13.878C188.569 13.8395 188.293 13.7779 188.024 13.6937C186.898 13.3603 186.192 12.6121 185.974 11.4774C185.703 10.0801 185.705 8.64406 185.98 7.24741C186.24 5.9338 187.079 5.11002 188.387 4.79341C189.657 4.47826 190.985 4.47413 192.257 4.78138C193.793 5.15525 194.604 6.13878 194.685 7.7103C194.705 8.19069 194.692 8.67191 194.645 9.15047C194.575 9.92035 194.175 10.2918 193.394 10.3053C192.261 10.325 191.128 10.3154 189.995 10.3173C189.582 10.3192 189.171 10.3188 188.686 10.3188ZM191.94 8.40224C191.912 8.10487 191.906 7.82483 191.856 7.552C191.746 6.95534 191.508 6.70753 190.899 6.6469C190.47 6.60408 190.03 6.62958 189.597 6.66326C189.463 6.67057 189.332 6.71229 189.218 6.78437C189.104 6.85646 189.011 6.95646 188.948 7.07467C188.724 7.49089 188.722 7.94079 188.733 8.40224H191.938H191.94Z" fill="#004A56"/>
<path d="M179.392 4.8301V3.64062H181.292V4.82432H184.274L183.849 6.97326C183.616 6.97326 183.399 6.97326 183.182 6.97326C182.042 6.96508 180.9 6.95353 179.76 6.94968C179.566 6.95004 179.372 6.96727 179.181 7.00117C178.961 7.03918 178.82 7.16381 178.807 7.40536C178.79 7.70032 178.858 7.8798 179.108 7.9385C179.459 8.02078 179.823 8.05928 180.183 8.10114C180.911 8.18679 181.645 8.25319 182.374 8.3475C182.587 8.37493 182.796 8.45673 182.998 8.53661C183.819 8.86284 184.322 9.45662 184.406 10.3343C184.458 10.8357 184.452 11.3413 184.388 11.8413C184.272 12.6593 183.766 13.2122 183.008 13.5409C182.292 13.8517 181.532 13.9417 180.76 13.9691C180.439 13.9806 180.439 13.9773 180.438 14.3059C180.438 14.3925 180.438 14.4791 180.438 14.5802H178.534V13.9773H175.938C176.005 13.6053 176.06 13.2858 176.12 12.9668C176.179 12.6478 176.248 12.3365 176.297 12.0218C176.322 11.8486 176.394 11.8072 176.566 11.8096C177.836 11.8298 179.106 11.8447 180.377 11.8471C180.675 11.8478 180.973 11.8188 181.266 11.7605C181.563 11.7008 181.661 11.5334 181.66 11.2134C181.66 10.905 181.571 10.7462 181.272 10.688C180.893 10.6143 180.504 10.5888 180.119 10.5508C179.452 10.4849 178.774 10.4738 178.118 10.3526C176.79 10.1072 176.114 9.31852 176.034 7.98662C176.012 7.63457 176.027 7.28122 176.08 6.93236C176.195 6.18076 176.632 5.64906 177.316 5.31416C177.845 5.05481 178.413 4.94029 178.995 4.87629C179.123 4.86233 179.25 4.84549 179.392 4.8301Z" fill="#004A56"/>
<path d="M143.805 13.9373H140.912C140.901 13.8899 140.893 13.8416 140.889 13.7929C140.892 11.7166 140.889 9.64037 140.906 7.56457C140.916 7.23633 140.97 6.91088 141.067 6.59692C141.374 5.53833 142.166 5.01866 143.192 4.7824C144.309 4.52497 145.44 4.52641 146.57 4.62361C147.101 4.66933 147.625 4.77243 148.133 4.93108C149.242 5.27897 149.788 6.09986 149.923 7.21379C149.955 7.46829 149.971 7.7244 149.972 7.98079C149.976 9.89683 149.977 11.8127 149.974 13.7285C149.974 13.7915 149.968 13.855 149.965 13.9344H147.057C147.057 13.8266 147.057 13.7323 147.057 13.638C147.057 11.8503 147.057 10.0627 147.057 8.27527C147.057 8.08224 147.044 7.88944 147.021 7.69785C146.967 7.25661 146.742 6.9987 146.305 6.89477C145.775 6.77156 145.225 6.76123 144.691 6.86445C144.085 6.97609 143.84 7.2696 143.814 7.89273C143.799 8.27767 143.807 8.66261 143.806 9.04756C143.806 10.5787 143.806 12.1098 143.806 13.6409V13.9354L143.805 13.9373Z" fill="#004A56"/>
<path d="M206.988 4.79538H208.692C208.999 4.79538 209.307 4.80404 209.614 4.79201C209.786 4.78528 209.836 4.84446 209.834 5.01095C209.827 5.82077 209.831 6.63059 209.831 7.44042C209.831 8.43453 209.831 9.42912 209.831 10.4237C209.834 11.3861 210.094 11.6825 211.061 11.7402C211.472 11.7573 211.884 11.7293 212.289 11.6565C212.677 11.593 212.906 11.3197 212.956 10.928C212.983 10.7215 212.998 10.5136 212.999 10.3053C213.002 8.56541 213.002 6.82531 212.999 5.08505V4.81078H215.809C215.82 4.86045 215.827 4.91077 215.831 4.96139C215.827 6.99003 215.831 9.01868 215.811 11.0473C215.8 11.3677 215.745 11.6851 215.646 11.9904C215.343 13.0009 214.578 13.497 213.598 13.7265C212.507 13.9815 211.398 13.9763 210.291 13.8848C209.808 13.8448 209.331 13.7555 208.867 13.6183C207.764 13.2911 207.184 12.5115 207.04 11.3962C207.006 11.1338 206.989 10.8696 206.989 10.6051C206.984 8.74457 206.983 6.88401 206.986 5.02346C206.988 4.95995 206.988 4.89643 206.988 4.79538Z" fill="#004A56"/>
<path d="M159.21 11.8072C159.119 12.2682 159.031 12.7128 158.942 13.1574C158.9 13.3691 158.867 13.5842 158.805 13.7906C158.784 13.858 158.686 13.9494 158.622 13.9494C157.306 13.9494 155.985 14.0678 154.674 13.8676C154.316 13.8128 153.963 13.7265 153.62 13.6097C152.582 13.2561 151.956 12.517 151.748 11.4641C151.491 10.1708 151.482 8.84135 151.719 7.54448C151.99 6.05283 152.868 5.26658 154.414 4.97306C155.472 4.77193 156.54 4.82871 157.606 4.81861C158.114 4.81476 158.622 4.81861 159.185 4.81861L158.746 7.02769C158.675 7.02769 158.605 7.02769 158.536 7.02769C157.768 7.0147 157 6.99738 156.232 6.99064C156.03 6.99156 155.828 7.00667 155.628 7.03587C155.022 7.11623 154.715 7.36885 154.626 7.96936C154.477 8.92906 154.48 9.906 154.636 10.8646C154.728 11.4088 155.045 11.7028 155.602 11.7533C156.172 11.8048 156.748 11.8053 157.321 11.8116C157.887 11.8173 158.453 11.8015 159.021 11.7966C159.073 11.7938 159.128 11.8005 159.21 11.8072Z" fill="#004A56"/>
<path d="M126.659 13.935H123.761C123.75 13.884 123.742 13.8322 123.738 13.7801C123.744 11.7591 123.734 9.73818 123.771 7.71724C123.779 7.28899 123.905 6.84197 124.07 6.44163C124.426 5.58033 125.167 5.17469 126.043 4.9726C127.014 4.74837 128.004 4.79505 128.99 4.78927C129.345 4.78927 129.7 4.78927 130.103 4.78927L129.662 7.05081C129.591 7.05081 129.522 7.05081 129.454 7.05081C128.84 7.05754 128.223 7.02867 127.613 7.0816C126.974 7.13694 126.711 7.45788 126.671 8.09207C126.66 8.26 126.66 8.4289 126.66 8.59683C126.66 10.2726 126.66 11.9484 126.66 13.6242V13.9292L126.659 13.935Z" fill="#004A56"/>
<path d="M202.701 13.9406H199.812C199.796 13.8875 199.786 13.8331 199.78 13.778C199.786 11.757 199.786 9.73609 199.804 7.71514C199.809 7.22347 199.933 6.74023 200.166 6.30625C200.623 5.44687 201.413 5.08166 202.324 4.92479C203.576 4.70923 204.838 4.78814 206.137 4.82471L205.703 7.0516C205.632 7.0516 205.563 7.0516 205.494 7.0516C204.88 7.05833 204.263 7.02994 203.653 7.08239C203.016 7.13725 202.752 7.45915 202.712 8.09623C202.702 8.26416 202.702 8.43306 202.702 8.60099C202.702 10.2768 202.702 11.9526 202.702 13.6283V13.9372L202.701 13.9406Z" fill="#004A56"/>
<path d="M171.6 13.931V4.85938H174.483V13.931H171.6Z" fill="#004A56"/>
<path d="M175.217 1.97181C175.006 1.97181 174.868 1.98191 174.731 1.9694C174.542 1.95208 174.476 2.01752 174.48 2.20999C174.492 2.73062 174.484 3.25174 174.483 3.77286C174.483 3.83541 174.475 3.89796 174.468 3.97832H171.602C171.602 3.70886 171.602 3.44902 171.602 3.18582C171.602 2.8413 171.598 2.49629 171.602 2.15177C171.602 2.01848 171.558 1.96267 171.42 1.96892C171.262 1.97614 171.103 1.96892 170.883 1.96892L173.161 -0.00390625L175.217 1.97181Z" fill="#004A56"/>
<path d="M198.323 12.7343C198.33 13.4296 197.721 14.0402 197.012 14.046C196.303 14.0517 195.695 13.4508 195.688 12.7468C195.68 12.0539 196.289 11.4433 196.999 11.4341C197.698 11.4274 198.316 12.0327 198.323 12.7343Z" fill="#004A56"/>
</g>
<defs>
<clipPath id="clip0_858_31237">
<rect width="135" height="17" fill="white" transform="translate(80.832)"/>
</clipPath>
</defs>
</svg>
