<svg width="211" height="40" viewBox="0 0 211 40" fill="none" xmlns="http://www.w3.org/2000/svg">
<path fill-rule="evenodd" clip-rule="evenodd" d="M10.7275 36.146C13.3195 36.2809 21.1705 35.7545 22.8797 34.4268L23.1024 34.4136C24.9994 35.8735 33.0839 35.974 36.4701 35.974C34.4738 36.6062 25.249 36.5586 22.8314 36.0666C19.7806 36.4448 12.8741 36.7437 10.7275 36.146Z" fill="#1A1A18"/>
<path fill-rule="evenodd" clip-rule="evenodd" d="M22.8746 34.5862C19.5464 37.2084 6.095 36.648 5.43263 35.1345C4.70662 33.6747 8.17307 31.5774 9.78571 30.8044L11.04 30.266C14.3656 32.9758 18.4949 34.7316 22.8746 34.5862Z" fill="#F39100"/>
<path fill-rule="evenodd" clip-rule="evenodd" d="M22.4535 34.5876C19.228 37.1286 6.19642 36.5845 5.55259 35.1207C4.85 33.7037 8.20731 31.6719 9.77063 30.9234C10.1776 30.75 10.582 30.5758 10.9864 30.4016C14.2091 33.0261 18.2094 34.7279 22.4535 34.5876Z" fill="#F39300"/>
<path fill-rule="evenodd" clip-rule="evenodd" d="M22.0277 34.5909C18.9047 37.0505 6.29224 36.5242 5.67041 35.1083C4.98982 33.7391 8.2397 31.7679 9.75378 31.0441C10.1448 30.8771 10.5367 30.7076 10.9277 30.5407C14.0499 33.081 17.9218 34.7265 22.0277 34.5909Z" fill="#F49500"/>
<path fill-rule="evenodd" clip-rule="evenodd" d="M21.6041 34.5919C18.5839 36.9706 6.38796 36.463 5.7887 35.0925C5.13068 33.7687 8.27308 31.866 9.736 31.1634C10.1145 31.0011 10.493 30.8388 10.8714 30.6765C13.8876 33.1332 17.6331 34.7252 21.6041 34.5919Z" fill="#F49700"/>
<path fill-rule="evenodd" clip-rule="evenodd" d="M21.1797 34.5964C18.2655 36.8921 6.48607 36.4021 5.90617 35.0787C5.27085 33.8004 8.30496 31.9606 9.71783 31.2851C10.0837 31.1275 10.4522 30.9706 10.8181 30.813C13.7305 33.1872 17.3444 34.7246 21.1797 34.5964Z" fill="#F49900"/>
<path fill-rule="evenodd" clip-rule="evenodd" d="M20.7551 34.5995C17.9434 36.8137 6.58386 36.3389 6.02597 35.0634C5.41084 33.8296 8.33859 32.0564 9.70221 31.4055C10.0555 31.2526 10.4081 31.1022 10.7614 30.9493C13.5708 33.2385 17.0554 34.7222 20.7551 34.5995Z" fill="#F59B00"/>
<path fill-rule="evenodd" clip-rule="evenodd" d="M20.3308 34.6024C17.6218 36.7355 6.68134 36.2795 6.14275 35.0512C5.55284 33.8636 8.37215 32.1531 9.68389 31.526C10.0239 31.3803 10.3638 31.2346 10.7038 31.089C13.4103 33.2929 16.7694 34.7208 20.3308 34.6024Z" fill="#F59D00"/>
<path fill-rule="evenodd" clip-rule="evenodd" d="M19.9085 34.6023C17.3023 36.6544 6.77909 36.2145 6.26232 35.0341C5.695 33.8918 8.40432 32.2493 9.66748 31.6441C9.99485 31.503 10.3215 31.3645 10.6488 31.2235C13.2519 33.3446 16.4827 34.7159 19.9085 34.6023Z" fill="#F69F00"/>
<path fill-rule="evenodd" clip-rule="evenodd" d="M19.4827 34.6081C16.9823 36.577 6.87486 36.1566 6.37829 35.0208C5.83373 33.9239 8.43668 32.3477 9.6506 31.7671C9.96206 31.6326 10.2769 31.4963 10.5909 31.3625C13.0909 33.3987 16.1925 34.7162 19.4827 34.6081Z" fill="#F6A000"/>
<path fill-rule="evenodd" clip-rule="evenodd" d="M19.0596 34.6088C16.6619 36.4965 6.97435 36.0924 6.49709 35.0038C5.97518 33.9522 8.47233 32.4397 9.6336 31.8855C9.93504 31.7564 10.2365 31.6272 10.5353 31.4974C12.9325 33.4483 15.9051 34.7118 19.0596 34.6088Z" fill="#F6A300"/>
<path fill-rule="evenodd" clip-rule="evenodd" d="M18.6365 34.6106C16.3407 36.4197 7.07298 36.0313 6.61766 34.9906C6.11588 33.9836 8.50397 32.5366 9.61672 32.0044C9.90482 31.8826 10.1937 31.7582 10.4818 31.6363C12.7734 33.5014 15.6195 34.7118 18.6365 34.6106Z" fill="#F7A400"/>
<path fill-rule="evenodd" clip-rule="evenodd" d="M18.2138 34.6146C16.0215 36.34 7.17285 35.9707 6.73681 34.9772C6.26023 34.0164 8.53914 32.6347 9.6 32.1263C9.8755 32.0091 10.151 31.8919 10.4247 31.7714C12.6153 33.5545 15.3324 34.7108 18.2138 34.6146Z" fill="#F7A700"/>
<path fill-rule="evenodd" clip-rule="evenodd" d="M17.7873 34.6158C15.7002 36.2607 7.268 35.9089 6.85209 34.96C6.39744 34.0471 8.57063 32.7292 9.57964 32.2446C9.84256 32.1321 10.1055 32.0196 10.3684 31.907C12.4527 33.6068 15.0415 34.7067 17.7873 34.6158Z" fill="#F8A800"/>
<path fill-rule="evenodd" clip-rule="evenodd" d="M17.3642 34.6191C15.3805 36.1803 7.36748 35.8473 6.9709 34.9455C6.53967 34.0754 8.60291 32.8255 9.56518 32.3662C9.81553 32.2583 10.0625 32.1523 10.3129 32.0445C12.2943 33.659 14.7541 34.7049 17.3642 34.6191Z" fill="#F8AA00"/>
<path fill-rule="evenodd" clip-rule="evenodd" d="M16.9413 34.6198C15.0594 36.1021 7.46625 35.7844 7.09166 34.9305C6.67987 34.1075 8.6375 32.9214 9.54871 32.4835C9.78572 32.3829 10.0227 32.2823 10.2572 32.181C12.1356 33.7106 14.4687 34.7035 16.9413 34.6198Z" fill="#F8AC00"/>
<path fill-rule="evenodd" clip-rule="evenodd" d="M16.5131 34.6263C14.7348 36.0251 7.5581 35.726 7.20609 34.9175C6.81687 34.1399 8.66784 33.0199 9.52637 32.6082C9.75078 32.5123 9.97519 32.4163 10.197 32.3196C11.9719 33.7664 14.1769 34.7026 16.5131 34.6263Z" fill="#F9AE00"/>
<path fill-rule="evenodd" clip-rule="evenodd" d="M16.0918 34.6275C14.4187 35.9459 7.65852 35.6648 7.32583 34.9035C6.96003 34.1687 8.7019 33.1141 9.5137 32.7277C9.72296 32.6357 9.93401 32.547 10.1425 32.4576C11.8153 33.8165 13.8905 34.7013 16.0918 34.6275Z" fill="#F9B000"/>
<path fill-rule="evenodd" clip-rule="evenodd" d="M15.6666 34.6323C14.0968 35.8668 7.75576 35.6035 7.44172 34.8919C7.10126 34.2032 8.73487 33.2117 9.49485 32.8492C9.69076 32.7644 9.89002 32.6779 10.0852 32.5957C11.6542 33.8722 13.6009 34.7007 15.6666 34.6323Z" fill="#F9B200"/>
<path fill-rule="evenodd" clip-rule="evenodd" d="M15.244 34.6313C13.7761 35.7871 7.85487 35.5398 7.56352 34.8736C7.24239 34.232 8.76947 33.3068 9.47835 32.9655C9.66348 32.8888 9.84682 32.8087 10.0327 32.7293C11.4981 33.9233 13.314 34.6946 15.244 34.6313Z" fill="#FAB400"/>
<path fill-rule="evenodd" clip-rule="evenodd" d="M14.819 34.6352C13.4539 35.71 7.94914 35.4812 7.67961 34.8629C7.38185 34.2642 8.79975 33.4042 9.46186 33.0882C9.63183 33.0153 9.80179 32.9425 9.97252 32.8671C11.3343 33.9782 13.0239 34.6961 14.819 34.6352Z" fill="#FAB500"/>
<path fill-rule="evenodd" clip-rule="evenodd" d="M14.3943 34.6391C13.135 35.6307 8.04687 35.4191 7.79676 34.8479C7.52175 34.2945 8.83319 33.5009 9.44347 33.2088C9.60087 33.1406 9.76086 33.0732 9.91826 33.0051C11.1778 34.0286 12.7382 34.6928 14.3943 34.6391Z" fill="#FBB800"/>
<path fill-rule="evenodd" clip-rule="evenodd" d="M13.9698 34.6398C12.8132 35.5502 8.1449 35.3548 7.9141 34.8308C7.66432 34.3235 8.86663 33.5954 9.42503 33.3271L9.86127 33.1399C11.0172 34.0808 12.4485 34.691 13.9698 34.6398Z" fill="#FBB900"/>
<path fill-rule="evenodd" clip-rule="evenodd" d="M22.8794 34.6129C21.4815 35.7079 18.2831 36.2343 15.0016 36.3665C14.6313 33.9544 12.2942 31.8887 9.2998 31.0424C9.46885 30.9524 9.62984 30.8731 9.77473 30.8043L11.0251 30.2727C14.363 32.9811 18.5005 34.7425 22.8794 34.6129Z" fill="#F39604" fill-opacity="0.5"/>
<path fill-rule="evenodd" clip-rule="evenodd" d="M22.8832 34.5848C26.2122 37.2096 39.6629 36.6466 40.3234 35.1364C41.052 33.6758 37.5848 31.576 35.9722 30.803L34.7186 30.2672C31.3923 32.9744 27.263 34.7302 22.8832 34.5848Z" fill="#F39100"/>
<path fill-rule="evenodd" clip-rule="evenodd" d="M23.3062 34.5871C26.5317 37.1282 39.5641 36.5866 40.2045 35.121C40.9105 33.7059 37.5532 31.674 35.9891 30.923C35.5829 30.7521 35.1785 30.5779 34.7741 30.4037C31.5514 33.0283 27.5503 34.7274 23.3062 34.5871Z" fill="#F39300"/>
<path fill-rule="evenodd" clip-rule="evenodd" d="M23.7305 34.5915C26.8535 37.0512 39.466 36.5248 40.087 35.1063C40.7684 33.7398 37.5185 31.7685 36.0044 31.0447C35.6134 30.8778 35.2216 30.7083 34.8272 30.5395C31.7083 33.0817 27.8364 34.7272 23.7305 34.5915Z" fill="#F49500"/>
<path fill-rule="evenodd" clip-rule="evenodd" d="M24.1566 34.593C27.1768 36.9717 39.372 36.4616 39.972 35.0936C40.63 33.7699 37.4868 31.8646 36.0247 31.1645C35.6462 31.0022 35.2677 30.8399 34.8893 30.6776C31.8731 33.1344 28.1276 34.7264 24.1566 34.593Z" fill="#F49700"/>
<path fill-rule="evenodd" clip-rule="evenodd" d="M24.5796 34.5946C27.4946 36.8928 39.2732 36.4003 39.8531 35.077C40.4885 33.7986 37.4551 31.9614 36.0415 31.2833C35.6764 31.1283 35.3105 30.9707 34.942 30.8138C32.0288 33.1854 28.4149 34.7228 24.5796 34.5946Z" fill="#F49900"/>
<path fill-rule="evenodd" clip-rule="evenodd" d="M25.0031 34.5982C27.8148 36.8124 39.1751 36.3402 39.7331 35.0648C40.3482 33.831 37.4205 32.0577 36.0561 31.4042C35.7061 31.2531 35.351 31.1035 34.9977 30.9506C32.1883 33.2398 28.7028 34.7209 25.0031 34.5982Z" fill="#F59B00"/>
<path fill-rule="evenodd" clip-rule="evenodd" d="M25.4271 34.6019C28.1361 36.7351 39.0766 36.2792 39.6144 35.0483C40.2069 33.8599 37.3858 32.1527 36.074 31.5256C35.7341 31.3799 35.3941 31.2343 35.0541 31.0886C32.3476 33.2925 28.9885 34.7204 25.4271 34.6019Z" fill="#F59D00"/>
<path fill-rule="evenodd" clip-rule="evenodd" d="M25.8491 34.6043C28.4552 36.6564 38.9785 36.2165 39.4952 35.0361C40.0626 33.8938 37.3525 32.2487 36.0901 31.646C35.7627 31.505 35.4353 31.364 35.1087 31.2255C32.5049 33.3441 29.2749 34.7178 25.8491 34.6043Z" fill="#F69F00"/>
<path fill-rule="evenodd" clip-rule="evenodd" d="M26.277 34.6073C28.7773 36.5762 38.8822 36.1566 39.3788 35.0208C39.9259 33.9231 37.323 32.347 36.109 31.7664C35.7976 31.6319 35.4828 31.4956 35.1688 31.3618C32.6688 33.398 29.5671 34.7155 26.277 34.6073Z" fill="#F6A000"/>
<path fill-rule="evenodd" clip-rule="evenodd" d="M26.6995 34.6085C29.0979 36.4988 38.7855 36.0946 39.2602 35.0068C39.7847 33.9545 37.2875 32.4419 36.1255 31.8852C35.8266 31.7553 35.5252 31.6262 35.2237 31.4971C32.8274 33.4506 29.8547 34.7141 26.6995 34.6085Z" fill="#F6A300"/>
<path fill-rule="evenodd" clip-rule="evenodd" d="M27.123 34.6118C29.418 36.4183 38.6865 36.0325 39.1418 34.9918C39.6436 33.9848 37.253 32.5385 36.1428 32.0056C35.8547 31.8837 35.5658 31.7593 35.277 31.6349C32.9861 33.5025 30.14 34.7129 27.123 34.6118Z" fill="#F7A400"/>
<path fill-rule="evenodd" clip-rule="evenodd" d="M27.5459 34.6146C29.7356 36.3407 38.5869 35.9707 39.0229 34.9772C39.4995 34.0163 37.2206 32.6347 36.1597 32.1262C35.8842 32.009 35.6087 31.8918 35.335 31.7713C33.1444 33.5544 30.4273 34.7107 27.5459 34.6146Z" fill="#F7A700"/>
<path fill-rule="evenodd" clip-rule="evenodd" d="M27.9724 34.6176C30.0587 36.2599 38.4917 35.9107 38.9076 34.9618C39.3614 34.0463 37.189 32.7309 36.18 32.2464C35.9171 32.1338 35.6541 32.0213 35.3912 31.9088C33.3061 33.6061 30.7181 34.7085 27.9724 34.6176Z" fill="#F8A800"/>
<path fill-rule="evenodd" clip-rule="evenodd" d="M28.3951 34.6184C30.3795 36.1821 38.3925 35.8491 38.7891 34.9474C39.2203 34.0773 37.1571 32.8273 36.1941 32.3655C35.9471 32.2595 35.6967 32.1516 35.4471 32.0463C33.4657 33.6609 31.0059 34.7068 28.3951 34.6184Z" fill="#F8AA00"/>
<path fill-rule="evenodd" clip-rule="evenodd" d="M28.8196 34.6222C30.6981 36.1027 38.2947 35.7868 38.6693 34.933C39.0811 34.11 37.1234 32.9239 36.2122 32.486C35.9752 32.3854 35.7408 32.284 35.5038 32.1834C33.6253 33.713 31.2922 34.7059 28.8196 34.6222Z" fill="#F8AC00"/>
<path fill-rule="evenodd" clip-rule="evenodd" d="M29.2454 34.6238C31.0212 36.0233 38.2005 35.7234 38.5533 34.9175C38.9425 34.1399 37.0915 33.0198 36.2322 32.6056C36.0085 32.5122 35.7841 32.4163 35.5623 32.3196C33.7866 33.7638 31.5824 34.7026 29.2454 34.6238Z" fill="#F9AE00"/>
<path fill-rule="evenodd" clip-rule="evenodd" d="M29.6682 34.6282C31.3413 35.9466 38.1007 35.6629 38.4342 34.9042C38.7999 34.1694 37.0581 33.1148 36.2463 32.7284C36.037 32.6364 35.826 32.5477 35.6167 32.4557C33.9447 33.8172 31.8687 34.6994 29.6682 34.6282Z" fill="#F9B000"/>
<path fill-rule="evenodd" clip-rule="evenodd" d="M30.0919 34.6294C31.6625 35.8664 38.0036 35.6031 38.3168 34.8889C38.6581 34.2027 37.0244 33.2113 36.2637 32.8462C36.0685 32.764 35.8693 32.6775 35.6734 32.5927C34.1051 33.8718 32.1576 34.6978 30.0919 34.6294Z" fill="#F9B200"/>
<path fill-rule="evenodd" clip-rule="evenodd" d="M30.5149 34.6332C31.9803 35.7897 37.904 35.5417 38.1954 34.8755C38.5165 34.2339 36.9894 33.3086 36.2805 32.9674C36.0972 32.8873 35.9121 32.8106 35.7262 32.7312C34.2608 33.9251 32.4449 34.6965 30.5149 34.6332Z" fill="#FAB400"/>
<path fill-rule="evenodd" clip-rule="evenodd" d="M30.9403 34.6344C32.3021 35.7073 37.8094 35.4779 38.0789 34.8596C38.3775 34.2634 36.9596 33.4034 36.2975 33.0874C36.1275 33.0146 35.9568 32.9391 35.7843 32.867C34.4242 33.9748 32.7354 34.6953 30.9403 34.6344Z" fill="#FAB500"/>
<path fill-rule="evenodd" clip-rule="evenodd" d="M31.3653 34.6391C32.6246 35.6307 37.7128 35.419 37.9621 34.8453C38.2379 34.2944 36.9264 33.5008 36.3161 33.2087C36.1587 33.1406 36.0013 33.0724 35.8413 33.005C34.5818 34.0286 33.0214 34.6928 31.3653 34.6391Z" fill="#FBB800"/>
<path fill-rule="evenodd" clip-rule="evenodd" d="M31.7878 34.6417C32.9436 35.5496 37.6127 35.3567 37.8435 34.8327C38.0933 34.3254 36.891 33.5973 36.3326 33.329L35.8963 33.1418C34.7404 34.0827 33.3083 34.6903 31.7878 34.6417Z" fill="#FBB900"/>
<path fill-rule="evenodd" clip-rule="evenodd" d="M22.8799 34.6129C24.2778 35.7079 27.4735 36.2343 30.7577 36.3665C31.128 33.9544 33.4651 31.8887 36.4595 31.0424C36.2905 30.9524 36.1295 30.8731 35.9846 30.8043L34.7315 30.2727C31.3963 32.9811 27.2589 34.7425 22.8799 34.6129Z" fill="#F39604" fill-opacity="0.5"/>
<path fill-rule="evenodd" clip-rule="evenodd" d="M7.66759e-05 27.4838C-0.00528971 29.1078 0.265714 30.372 2.49545 29.9621C15.5599 27.5685 23.8349 17.4545 23.0567 4.23804C9.72396 4.99976 0.0269086 14.4869 7.66759e-05 27.4838Z" fill="url(#paint0_linear_692_24683)"/>
<path fill-rule="evenodd" clip-rule="evenodd" d="M45.7644 27.4838C45.7698 29.1078 45.4988 30.372 43.269 29.9621C30.2046 27.5685 21.9296 17.4545 22.7077 4.23804C36.0405 4.99976 45.7376 14.4869 45.7644 27.4838Z" fill="url(#paint1_linear_692_24683)"/>
<path fill-rule="evenodd" clip-rule="evenodd" d="M22.8682 0C32.5518 0 40.4028 7.79447 40.4028 17.4112C40.4028 27.028 32.5518 34.8251 22.8682 34.8251C13.1872 34.8251 5.3362 27.028 5.3362 17.4112C5.3362 7.79447 13.1872 0 22.8682 0Z" fill="#21211F"/>
<path fill-rule="evenodd" clip-rule="evenodd" d="M22.8797 0.274414C32.4587 0.274414 40.2212 7.98689 40.2212 17.4979C40.2212 27.0115 32.4587 34.7213 22.8797 34.7213C13.3007 34.7213 5.53826 27.0115 5.53826 17.4979C5.53826 7.98689 13.3007 0.274414 22.8797 0.274414Z" fill="#222221"/>
<path fill-rule="evenodd" clip-rule="evenodd" d="M22.891 0.552246C32.3627 0.552246 40.042 8.17743 40.042 17.5852C40.042 26.9931 32.3627 34.6209 22.891 34.6209C13.4194 34.6209 5.7374 26.9931 5.7374 17.5852C5.7374 8.17743 13.4194 0.552246 22.891 0.552246Z" fill="#242322"/>
<path d="M22.8965 34.5173C13.5295 34.5173 5.93601 26.9755 5.93601 17.6721C5.93601 8.36877 13.5295 0.826904 22.8965 0.826904C32.2635 0.826904 39.8569 8.36877 39.8569 17.6721C39.8569 26.9755 32.2635 34.5173 22.8965 34.5173Z" fill="#252524" stroke="#242322" stroke-width="0.00383542" stroke-miterlimit="22.9256"/>
<path fill-rule="evenodd" clip-rule="evenodd" d="M22.9078 1.10132C32.1702 1.10132 39.6777 8.55721 39.6777 17.7561C39.6777 26.9549 32.1702 34.4108 22.9078 34.4108C13.6454 34.4108 6.13782 26.9549 6.13782 17.7561C6.13782 8.55721 13.6454 1.10132 22.9078 1.10132Z" fill="#262625"/>
<path fill-rule="evenodd" clip-rule="evenodd" d="M22.9157 1.37915C32.0707 1.37915 39.4951 8.75043 39.4951 17.8435C39.4951 26.9392 32.0707 34.3105 22.9157 34.3105C13.7579 34.3105 6.33355 26.9392 6.33355 17.8435C6.33355 8.75043 13.7579 1.37915 22.9157 1.37915Z" fill="#282826"/>
<path fill-rule="evenodd" clip-rule="evenodd" d="M22.9241 1.65088C31.9745 1.65088 39.313 8.94015 39.313 17.9301C39.313 26.9174 31.9745 34.2066 22.9241 34.2066C13.8737 34.2066 6.53513 26.9174 6.53513 17.9301C6.53513 8.94015 13.8737 1.65088 22.9241 1.65088Z" fill="#292928"/>
<path fill-rule="evenodd" clip-rule="evenodd" d="M22.9324 1.92871C31.8782 1.92871 39.1309 9.13337 39.1309 18.0175C39.1309 26.9016 31.8782 34.1062 22.9324 34.1062C13.9867 34.1062 6.734 26.9016 6.734 18.0175C6.734 9.13337 13.9867 1.92871 22.9324 1.92871Z" fill="#2C2C2B"/>
<path fill-rule="evenodd" clip-rule="evenodd" d="M22.9437 2.20312C31.7849 2.20312 38.9517 9.32315 38.9517 18.1041C38.9517 26.8825 31.7849 34.0024 22.9437 34.0024C14.1026 34.0024 6.93581 26.8825 6.93581 18.1041C6.93581 9.32315 14.1026 2.20312 22.9437 2.20312Z" fill="#2D2D2C"/>
<path fill-rule="evenodd" clip-rule="evenodd" d="M22.9487 2.48096C31.6852 2.48096 38.7661 9.51368 38.7661 18.1915C38.7661 26.8667 31.6852 33.8994 22.9487 33.8994C14.2149 33.8994 7.13129 26.8667 7.13129 18.1915C7.13129 9.51368 14.2149 2.48096 22.9487 2.48096Z" fill="#2F2E2D"/>
<path fill-rule="evenodd" clip-rule="evenodd" d="M22.9605 2.75537C31.5923 2.75537 38.5874 9.70344 38.5874 18.2755C38.5874 26.8475 31.5923 33.7956 22.9605 33.7956C14.3314 33.7956 7.33359 26.8475 7.33359 18.2755C7.33359 9.70344 14.3314 2.75537 22.9605 2.75537Z" fill="#30302F"/>
<path fill-rule="evenodd" clip-rule="evenodd" d="M22.9715 3.03003C31.496 3.03003 38.4053 9.89347 38.4053 18.3624C38.4053 26.8286 31.496 33.6921 22.9715 33.6921C14.4444 33.6921 7.53514 26.8286 7.53514 18.3624C7.53514 9.89347 14.4444 3.03003 22.9715 3.03003Z" fill="#313130"/>
<path fill-rule="evenodd" clip-rule="evenodd" d="M22.9768 3.30786C31.3966 3.30786 38.2227 10.0867 38.2227 18.4497C38.2227 26.8102 31.3966 33.5917 22.9768 33.5917C14.5569 33.5917 7.73355 26.8102 7.73355 18.4497C7.73355 10.0867 14.5569 3.30786 22.9768 3.30786Z" fill="#323231"/>
<path fill-rule="evenodd" clip-rule="evenodd" d="M22.9881 3.58228C31.3006 3.58228 38.0435 10.2765 38.0435 18.5337C38.0435 26.791 31.3006 33.4852 22.9881 33.4852C14.6729 33.4852 7.93267 26.791 7.93267 18.5337C7.93267 10.2765 14.6729 3.58228 22.9881 3.58228Z" fill="#333332"/>
<path fill-rule="evenodd" clip-rule="evenodd" d="M22.9962 3.86011C31.2041 3.86011 37.8584 10.467 37.8584 18.6211C37.8584 26.7753 31.2041 33.3848 22.9962 33.3848C14.7856 33.3848 8.13131 26.7753 8.13131 18.6211C8.13131 10.467 14.7856 3.86011 22.9962 3.86011Z" fill="#353433"/>
<path fill-rule="evenodd" clip-rule="evenodd" d="M23.0048 4.13452C31.1081 4.13452 37.6792 10.6595 37.6792 18.7078C37.6792 26.7562 31.1081 33.281 23.0048 33.281C14.9016 33.281 8.33313 26.7562 8.33313 18.7078C8.33313 10.6595 14.9016 4.13452 23.0048 4.13452Z" fill="#363635"/>
<path fill-rule="evenodd" clip-rule="evenodd" d="M23.013 4.40894C31.0116 4.40894 37.4941 10.8492 37.4941 18.7918C37.4941 26.737 31.0116 33.1772 23.013 33.1772C15.0144 33.1772 8.52909 26.737 8.52909 18.7918C8.52909 10.8492 15.0144 4.40894 23.013 4.40894Z" fill="#373736"/>
<path fill-rule="evenodd" clip-rule="evenodd" d="M23.0243 4.68677C30.9155 4.68677 37.3149 11.0398 37.3149 18.8818C37.3149 26.7186 30.9155 33.0742 23.0243 33.0742C15.1303 33.0742 8.73091 26.7186 8.73091 18.8818C8.73091 11.0398 15.1303 4.68677 23.0243 4.68677Z" fill="#383837"/>
<path fill-rule="evenodd" clip-rule="evenodd" d="M23.0324 4.96118C30.8217 4.96118 37.1353 11.2295 37.1353 18.9658C37.1353 26.6994 30.8217 32.9704 23.0324 32.9704C15.2458 32.9704 8.93222 26.6994 8.93222 18.9658C8.93222 11.2295 15.2458 4.96118 23.0324 4.96118Z" fill="#393938"/>
<path fill-rule="evenodd" clip-rule="evenodd" d="M23.041 5.23901C30.723 5.23901 36.9507 11.4227 36.9507 19.0532C36.9507 26.6837 30.723 32.87 23.041 32.87C15.359 32.87 9.13136 26.6837 9.13136 19.0532C9.13136 11.4227 15.359 5.23901 23.041 5.23901Z" fill="#3A3A39"/>
<path fill-rule="evenodd" clip-rule="evenodd" d="M23.0489 5.51099C30.6262 5.51099 36.7681 11.6127 36.7681 19.1374C36.7681 26.6647 30.6262 32.7664 23.0489 32.7664C15.4716 32.7664 9.32706 26.6647 9.32706 19.1374C9.32706 11.6127 15.4716 5.51099 23.0489 5.51099Z" fill="#3D3C3B"/>
<path fill-rule="evenodd" clip-rule="evenodd" d="M23.0575 5.79126C30.5302 5.79126 36.5889 11.8057 36.5889 19.2272C36.5889 26.6487 30.5302 32.6632 23.0575 32.6632C15.5875 32.6632 9.52887 26.6487 9.52887 19.2272C9.52887 11.8057 15.5875 5.79126 23.0575 5.79126Z" fill="#3E3E3D"/>
<path fill-rule="evenodd" clip-rule="evenodd" d="M23.0686 6.06323C30.4366 6.06323 36.4067 11.9957 36.4067 19.3114C36.4067 26.6298 30.4366 32.5596 23.0686 32.5596C15.7032 32.5596 9.73045 26.6298 9.73045 19.3114C9.73045 11.9957 15.7032 6.06323 23.0686 6.06323Z" fill="#3F3F3E"/>
<path fill-rule="evenodd" clip-rule="evenodd" d="M23.0738 6.33765C30.3372 6.33765 36.2241 12.1855 36.2241 19.398C36.2241 26.608 30.3372 32.4558 23.0738 32.4558C15.8131 32.4558 9.92616 26.608 9.92616 19.398C9.92616 12.1855 15.8131 6.33765 23.0738 6.33765Z" fill="#40403F"/>
<path fill-rule="evenodd" clip-rule="evenodd" d="M23.0854 6.61523C30.2414 6.61523 36.0425 12.3784 36.0425 19.4852C36.0425 26.592 30.2414 32.3551 23.0854 32.3551C15.9293 32.3551 10.1282 26.592 10.1282 19.4852C10.1282 12.3784 15.9293 6.61523 23.0854 6.61523Z" fill="#414140"/>
<path fill-rule="evenodd" clip-rule="evenodd" d="M23.0932 6.88989C30.1447 6.88989 35.8599 12.5685 35.8599 19.5694C35.8599 26.5731 30.1447 32.2489 23.0932 32.2489C16.0418 32.2489 10.3266 26.5731 10.3266 19.5694C10.3266 12.5685 16.0418 6.88989 23.0932 6.88989Z" fill="#424241"/>
<path fill-rule="evenodd" clip-rule="evenodd" d="M23.1045 7.16455C30.0486 7.16455 35.6807 12.7584 35.6807 19.6563C35.6807 26.5541 30.0486 32.1454 23.1045 32.1454C16.1578 32.1454 10.5284 26.5541 10.5284 19.6563C10.5284 12.7584 16.1578 7.16455 23.1045 7.16455Z" fill="#434342"/>
<path fill-rule="evenodd" clip-rule="evenodd" d="M23.1127 7.44214C29.9521 7.44214 35.4956 12.9488 35.4956 19.7435C35.4956 26.5381 29.9521 32.0448 23.1127 32.0448C16.2705 32.0448 10.7244 26.5381 10.7244 19.7435C10.7244 12.9488 16.2705 7.44214 23.1127 7.44214Z" fill="#444443"/>
<path fill-rule="evenodd" clip-rule="evenodd" d="M23.1213 7.71997C29.8561 7.71997 35.3164 13.1419 35.3164 19.8308C35.3164 26.5197 29.8561 31.9444 23.1213 31.9444C16.3865 31.9444 10.9262 26.5197 10.9262 19.8308C10.9262 13.1419 16.3865 7.71997 23.1213 7.71997Z" fill="#464544"/>
<path fill-rule="evenodd" clip-rule="evenodd" d="M23.1326 7.99438C29.7628 7.99438 35.1372 13.3317 35.1372 19.9175C35.1372 26.5006 29.7628 31.8405 23.1326 31.8405C16.5024 31.8405 11.128 26.5006 11.128 19.9175C11.128 13.3317 16.5024 7.99438 23.1326 7.99438Z" fill="#474646"/>
<path fill-rule="evenodd" clip-rule="evenodd" d="M23.1407 8.26904C29.6636 8.26904 34.9521 13.5218 34.9521 20.0017C34.9521 26.4817 29.6636 31.7344 23.1407 31.7344C16.6152 31.7344 11.324 26.4817 11.324 20.0017C11.324 13.5218 16.6152 8.26904 23.1407 8.26904Z" fill="#484747"/>
<path fill-rule="evenodd" clip-rule="evenodd" d="M23.1494 8.54663C29.5676 8.54663 34.7729 13.7147 34.7729 20.0889C34.7729 26.4657 29.5676 31.6338 23.1494 31.6338C16.7312 31.6338 11.5258 26.4657 11.5258 20.0889C11.5258 13.7147 16.7312 8.54663 23.1494 8.54663Z" fill="#494948"/>
<path fill-rule="evenodd" clip-rule="evenodd" d="M23.1572 8.82129C29.4708 8.82129 34.5903 13.9047 34.5903 20.1757C34.5903 26.4467 29.4708 31.5302 23.1572 31.5302C16.8437 31.5302 11.7242 26.4467 11.7242 20.1757C11.7242 13.9047 16.8437 8.82129 23.1572 8.82129Z" fill="#4B4B4A"/>
<path fill-rule="evenodd" clip-rule="evenodd" d="M23.1656 9.0957C29.3745 9.0957 34.4082 14.0945 34.4082 20.2597C34.4082 26.4276 29.3745 31.4264 23.1656 31.4264C16.9594 31.4264 11.9257 26.4276 11.9257 20.2597C11.9257 14.0945 16.9594 9.0957 23.1656 9.0957Z" fill="#4C4C4B"/>
<path fill-rule="evenodd" clip-rule="evenodd" d="M23.174 9.37354C29.2756 9.37354 34.2261 14.2877 34.2261 20.3471C34.2261 26.4092 29.2756 31.3233 23.174 31.3233C17.0697 31.3233 12.122 26.4092 12.122 20.3471C12.122 14.2877 17.0697 9.37354 23.174 9.37354Z" fill="#4D4D4C"/>
<path fill-rule="evenodd" clip-rule="evenodd" d="M23.1851 9.64795C29.182 9.64795 34.0439 14.4749 34.0439 20.4338C34.0439 26.39 29.182 31.2196 23.1851 31.2196C17.1854 31.2196 12.3235 26.39 12.3235 20.4338C12.3235 14.4749 17.1854 9.64795 23.1851 9.64795Z" fill="#4E4E4D"/>
<path fill-rule="evenodd" clip-rule="evenodd" d="M23.1903 9.92578C29.0826 9.92578 33.8613 14.668 33.8613 20.5211C33.8613 26.3742 29.0826 31.1192 23.1903 31.1192C17.298 31.1192 12.5219 26.3742 12.5219 20.5211C12.5219 14.668 17.298 9.92578 23.1903 9.92578Z" fill="#4F4F4E"/>
<path fill-rule="evenodd" clip-rule="evenodd" d="M23.2016 10.1975C28.9892 10.1975 33.6821 14.8578 33.6821 20.6051C33.6821 26.355 28.9892 31.0153 23.2016 31.0153C17.4139 31.0153 12.721 26.355 12.721 20.6051C12.721 14.8578 17.4139 10.1975 23.2016 10.1975Z" fill="#50504F"/>
<path fill-rule="evenodd" clip-rule="evenodd" d="M23.2097 10.4753C28.8927 10.4753 33.4971 15.051 33.4971 20.6951C33.4971 26.3393 28.8927 30.9123 23.2097 30.9123C17.5267 30.9123 12.9197 26.3393 12.9197 20.6951C12.9197 15.051 17.5267 10.4753 23.2097 10.4753Z" fill="#515150"/>
<path fill-rule="evenodd" clip-rule="evenodd" d="M23.221 10.75C28.7967 10.75 33.3179 15.241 33.3179 20.7794C33.3179 26.3178 28.7967 30.8087 23.221 30.8087C17.6427 30.8087 13.1215 26.3178 13.1215 20.7794C13.1215 15.241 17.6427 10.75 23.221 10.75Z" fill="#525251"/>
<path fill-rule="evenodd" clip-rule="evenodd" d="M23.2262 11.0244C28.6973 11.0244 33.1353 15.4308 33.1353 20.866C33.1353 26.2985 28.6973 30.7049 23.2262 30.7049C17.7552 30.7049 13.3199 26.2985 13.3199 20.866C13.3199 15.4308 17.7552 11.0244 23.2262 11.0244Z" fill="#535352"/>
<path fill-rule="evenodd" clip-rule="evenodd" d="M23.2378 11.3022C28.6042 11.3022 32.9536 15.624 32.9536 20.9534C32.9536 26.2828 28.6042 30.6046 23.2378 30.6046C17.8714 30.6046 13.5193 26.2828 13.5193 20.9534C13.5193 15.624 17.8714 11.3022 23.2378 11.3022Z" fill="#545453"/>
<path fill-rule="evenodd" clip-rule="evenodd" d="M23.2491 11.5767C28.5081 11.5767 32.7744 15.8137 32.7744 21.0374C32.7744 26.2636 28.5081 30.4981 23.2491 30.4981C17.9873 30.4981 13.7211 26.2636 13.7211 21.0374C13.7211 15.8137 17.9873 11.5767 23.2491 11.5767Z" fill="#555554"/>
<path fill-rule="evenodd" clip-rule="evenodd" d="M23.254 11.8542C28.4085 11.8542 32.5889 16.0067 32.5889 21.1245C32.5889 26.2476 28.4085 30.3975 23.254 30.3975C18.0969 30.3975 13.9192 26.2476 13.9192 21.1245C13.9192 16.0067 18.0969 11.8542 23.254 11.8542Z" fill="#565655"/>
<path fill-rule="evenodd" clip-rule="evenodd" d="M23.2632 12.1289C28.3156 12.1289 32.4102 16.1967 32.4102 21.2114C32.4102 26.2287 28.3156 30.2939 23.2632 30.2939C18.2134 30.2939 14.1188 26.2287 14.1188 21.2114C14.1188 16.1967 18.2134 12.1289 23.2632 12.1289Z" fill="#575756"/>
<path fill-rule="evenodd" clip-rule="evenodd" d="M23.271 12.4065C28.2188 12.4065 32.2275 16.387 32.2275 21.2986C32.2275 26.2101 28.2188 30.1933 23.271 30.1933C18.3259 30.1933 14.3172 26.2101 14.3172 21.2986C14.3172 16.387 18.3259 12.4065 23.271 12.4065Z" fill="#595958"/>
<path fill-rule="evenodd" clip-rule="evenodd" d="M23.2821 12.6812C28.1226 12.6812 32.0454 16.5771 32.0454 21.3854C32.0454 26.1912 28.1226 30.0871 23.2821 30.0871C18.4416 30.0871 14.5188 26.1912 14.5188 21.3854C14.5188 16.5771 18.4416 12.6812 23.2821 12.6812Z" fill="#5A5A59"/>
<path fill-rule="evenodd" clip-rule="evenodd" d="M23.2905 12.9558C28.0236 12.9558 31.8633 16.7671 31.8633 21.4697C31.8633 26.1723 28.0236 29.9835 23.2905 29.9835C18.5547 29.9835 14.7177 26.1723 14.7177 21.4697C14.7177 16.7671 18.5547 12.9558 23.2905 12.9558Z" fill="#5B5B5A"/>
<path fill-rule="evenodd" clip-rule="evenodd" d="M23.2989 13.2334C27.9301 13.2334 31.6812 16.96 31.6812 21.5568C31.6812 26.1563 27.9301 29.8829 23.2989 29.8829C18.6704 29.8829 14.9166 26.1563 14.9166 21.5568C14.9166 16.96 18.6704 13.2334 23.2989 13.2334Z" fill="#5C5C5B"/>
<path fill-rule="evenodd" clip-rule="evenodd" d="M23.3102 13.5078C27.834 13.5078 31.502 17.1498 31.502 21.6435C31.502 26.1371 27.834 29.7791 23.3102 29.7791C18.7863 29.7791 15.1184 26.1371 15.1184 21.6435C15.1184 17.1498 18.7863 13.5078 23.3102 13.5078Z" fill="#5D5D5C"/>
<path fill-rule="evenodd" clip-rule="evenodd" d="M23.3181 13.7856C27.7373 13.7856 31.3193 17.343 31.3193 21.7308C31.3193 26.1187 27.7373 29.676 23.3181 29.676C18.8988 29.676 15.3168 26.1187 15.3168 21.7308C15.3168 17.343 18.8988 13.7856 23.3181 13.7856Z" fill="#5E5E5D"/>
<path fill-rule="evenodd" clip-rule="evenodd" d="M23.3269 14.0576C27.6415 14.0576 31.1377 17.5303 31.1377 21.815C31.1377 26.0997 27.6415 29.5725 23.3269 29.5725C19.015 29.5725 15.5188 26.0997 15.5188 21.815C15.5188 17.5303 19.015 14.0576 23.3269 14.0576Z" fill="#5F5F5E"/>
<path d="M34.1152 9.89376C34.1152 13.7262 30.9625 16.8286 27.0772 16.8286C23.192 16.8286 20.0392 13.7262 20.0392 9.89376C20.0392 6.06134 23.192 2.95361 27.0772 2.95361C30.9625 2.95361 34.1152 6.06134 34.1152 9.89376Z" fill="white"/>
<path d="M25.4175 9.89376C25.4175 13.7262 22.2647 16.8286 18.3795 16.8286C14.4942 16.8286 11.3388 13.7262 11.3388 9.89376C11.3388 6.06134 14.4942 2.95625 18.3795 2.95625C22.2647 2.95625 25.4175 6.06134 25.4175 9.89376Z" fill="white"/>
<path fill-rule="evenodd" clip-rule="evenodd" d="M32.9894 31.887C32.2601 32.8307 30.5733 33.05 28.1573 34.2131C26.4705 34.4324 24.7838 34.6517 23.097 34.8711C18.7662 34.5854 15.1647 33.356 12.2925 31.1828C12.0645 29.5147 10.9931 27.9563 11.6084 26.1785C11.5397 19.3965 16.6451 12.7905 22.6627 12.8569C28.6803 12.9232 34.7667 19.7716 34.8354 26.5537C34.2201 28.3314 34.4481 29.9995 32.9894 31.887Z" fill="url(#paint2_radial_692_24683)"/>
<path d="M21.3418 9.88393C21.3418 11.3968 20.0968 12.624 18.562 12.624C17.0246 12.624 15.7795 11.3968 15.7795 9.88393C15.7795 8.36842 17.0246 7.1412 18.562 7.1412C20.0968 7.1412 21.3418 8.36842 21.3418 9.88393Z" fill="#1A1A18"/>
<path d="M29.4521 9.88417C29.4521 11.397 28.2072 12.6243 26.667 12.6243C25.1322 12.6243 23.8845 11.397 23.8845 9.88417C23.8845 8.36866 25.1322 7.14145 26.667 7.14145C28.2072 7.14145 29.4521 8.36866 29.4521 9.88417Z" fill="#1A1A18"/>
<path d="M18.1116 8.01196C18.1116 8.01196 16.9552 8.22092 16.77 9.23391C17.1403 9.48782 17.3711 9.4878 17.3711 9.4878C17.3711 9.4878 17.2798 8.68641 18.1116 8.01196Z" fill="white"/>
<path d="M18.1662 11.8404C18.3731 12.2315 19.0593 12.2835 19.699 11.9564C20.3386 11.6292 20.6894 11.047 20.4825 10.6558C20.2756 10.2646 19.5894 10.2127 18.9497 10.5398C18.3101 10.8669 17.9593 11.4492 18.1662 11.8404Z" fill="url(#paint3_radial_692_24683)"/>
<path d="M26.2146 8.01196C26.2146 8.01196 25.0582 8.22092 24.873 9.23391C25.2433 9.48782 25.4741 9.4878 25.4741 9.4878C25.4741 9.4878 25.3829 8.68641 26.2146 8.01196Z" fill="white"/>
<path d="M26.2667 11.8358C26.4748 12.2289 27.1616 12.2822 27.8008 11.9551C28.4399 11.6279 28.7894 11.0441 28.5813 10.6511C28.3733 10.258 27.6864 10.2047 27.0473 10.5318C26.4081 10.859 26.0586 11.4428 26.2667 11.8358Z" fill="url(#paint4_radial_692_24683)"/>
<path d="M19.6603 11.5891L18.8823 11.5957L18.8757 10.8286L19.6537 10.8221L19.6603 11.5891Z" fill="white" fill-opacity="0.98"/>
<path d="M27.8947 11.6009L27.1167 11.6067L27.1108 10.8396L27.8888 10.8339L27.8947 11.6009Z" fill="white" fill-opacity="0.98"/>
<path d="M26.9895 14.3374C27.5462 14.6535 27.5449 15.162 26.9901 15.4771C21.9905 18.2901 23.2996 18.2922 18.2886 15.4616C17.7346 15.1452 17.7329 14.6345 18.2881 14.3219C23.2463 12.1804 21.9384 12.1273 26.9895 14.3374Z" fill="#F39100"/>
<path fill-rule="evenodd" clip-rule="evenodd" d="M26.8849 14.357C27.4269 14.6643 27.4268 15.1619 26.8868 15.4671C22.0105 18.2131 23.2844 18.2145 18.3966 15.4533C17.8573 15.1457 17.8547 14.6484 18.3947 14.3432C23.2358 12.2546 21.9574 12.2003 26.8849 14.357Z" fill="#F39300"/>
<path fill-rule="evenodd" clip-rule="evenodd" d="M26.7805 14.377C27.3108 14.6777 27.3116 15.1619 26.7816 15.4605C22.0286 18.1374 23.2729 18.1398 18.5076 15.4461C17.98 15.145 17.9792 14.6609 18.5065 14.3626C23.2222 12.3273 21.9795 12.2765 26.7805 14.377Z" fill="#F49500"/>
<path fill-rule="evenodd" clip-rule="evenodd" d="M26.6806 14.3996C27.1962 14.6915 27.1978 15.1621 26.683 15.4534C22.0503 18.0609 23.2646 18.062 18.6201 15.4406C18.1069 15.1457 18.1053 14.6751 18.6174 14.3842C23.2156 12.3991 22.0032 12.3523 26.6806 14.3996Z" fill="#F49700"/>
<path fill-rule="evenodd" clip-rule="evenodd" d="M26.5771 14.4185C27.0783 14.7042 27.0786 15.1643 26.5786 15.4457C22.0692 17.9842 23.2486 17.9869 18.7294 15.4327C18.2282 15.147 18.2279 14.6869 18.7278 14.4055C23.2033 12.4734 22.0205 12.4256 26.5771 14.4185Z" fill="#F49900"/>
<path fill-rule="evenodd" clip-rule="evenodd" d="M26.4734 14.4386C26.9625 14.7152 26.964 15.1645 26.4766 15.4388C22.0902 17.9077 23.2396 17.9091 18.8409 15.4247C18.3544 15.1477 18.3533 14.7011 18.8407 14.4268C23.1936 12.5481 22.0434 12.5014 26.4734 14.4386Z" fill="#F59B00"/>
<path fill-rule="evenodd" clip-rule="evenodd" d="M26.3712 14.4592C26.8486 14.7292 26.8483 15.1654 26.3735 15.4327C22.1102 17.8322 23.227 17.8324 18.9512 15.4177C18.4795 15.1496 18.4771 14.7138 18.9493 14.4468C23.1823 12.6211 22.0674 12.5752 26.3712 14.4592Z" fill="#F59D00"/>
<path fill-rule="evenodd" clip-rule="evenodd" d="M26.2679 14.4811C26.728 14.7427 26.7312 15.165 26.269 15.4254C22.1287 17.7555 23.2133 17.7572 19.0605 15.4123C18.6005 15.1507 18.5999 14.728 19.0595 14.468C23.1696 12.6929 22.085 12.6511 26.2679 14.4811Z" fill="#F69F00"/>
<path fill-rule="evenodd" clip-rule="evenodd" d="M26.1647 14.4995C26.613 14.7546 26.6145 15.1637 26.1675 15.4168C22.148 17.6805 23.2 17.6811 19.1699 15.4033C18.7246 15.1505 18.7232 14.7413 19.1701 14.4883C23.1577 12.7664 22.1053 12.7231 26.1647 14.4995Z" fill="#F6A000"/>
<path fill-rule="evenodd" clip-rule="evenodd" d="M26.0658 14.5213C26.4995 14.7676 26.5021 15.1659 26.0673 15.4094C22.1708 17.6034 23.1905 17.6055 19.2836 15.3972C18.8527 15.1505 18.8531 14.7545 19.2822 14.5091C23.1499 12.8405 22.1305 12.8009 26.0658 14.5213Z" fill="#F6A300"/>
<path fill-rule="evenodd" clip-rule="evenodd" d="M25.9643 14.5419C26.3833 14.7793 26.3842 15.1645 25.965 15.4033C22.1892 17.5288 23.179 17.5292 19.3949 15.3911C18.9759 15.1537 18.9747 14.7659 19.3942 14.5297C23.1391 12.9139 22.152 12.873 25.9643 14.5419Z" fill="#F7A400"/>
<path fill-rule="evenodd" clip-rule="evenodd" d="M25.8624 14.563C26.267 14.7943 26.2687 15.166 25.8644 15.3948C22.2114 17.4504 23.1663 17.4529 19.5055 15.384C19.1009 15.1527 19.0992 14.7811 19.5062 14.5519C23.1284 12.9871 22.1738 12.9472 25.8624 14.563Z" fill="#F7A700"/>
<path fill-rule="evenodd" clip-rule="evenodd" d="M25.7572 14.5816C26.1501 14.8064 26.1501 15.1649 25.7584 15.3868C22.2292 17.3762 23.1541 17.377 19.6157 15.3757C19.2231 15.1536 19.2228 14.7925 19.6145 14.5706C23.1169 13.0609 22.1923 13.0226 25.7572 14.5816Z" fill="#F8A800"/>
<path fill-rule="evenodd" clip-rule="evenodd" d="M25.6563 14.6027C26.0371 14.8184 26.0383 15.166 25.6592 15.3809C22.2524 17.2978 23.1448 17.2976 19.7273 15.3686C19.3495 15.1552 19.3483 14.8076 19.7275 14.5927C23.1072 13.1341 22.2151 13.0969 25.6563 14.6027Z" fill="#F8AA00"/>
<path fill-rule="evenodd" clip-rule="evenodd" d="M25.5518 14.6243C25.9179 14.8311 25.9173 15.1656 25.5534 15.3732C22.2698 17.2209 23.1299 17.2221 19.838 15.3627C19.4719 15.1559 19.4721 14.8187 19.8364 14.6138C23.0934 13.2083 22.234 13.1722 25.5518 14.6243Z" fill="#F8AC00"/>
<path fill-rule="evenodd" clip-rule="evenodd" d="M25.4499 14.6431C25.8017 14.8438 25.8023 15.1675 25.4506 15.3654C22.2878 17.1466 23.1179 17.1463 19.9461 15.3543C19.5947 15.1562 19.5941 14.8325 19.9458 14.6346C23.0826 13.2795 22.2562 13.2472 25.4499 14.6431Z" fill="#F9AE00"/>
<path fill-rule="evenodd" clip-rule="evenodd" d="M25.3489 14.6634C25.6863 14.8579 25.6878 15.168 25.3487 15.359C22.3087 17.0683 23.1066 17.0695 20.0577 15.3473C19.721 15.1581 19.7218 14.845 20.0583 14.6543C23.0755 13.3547 22.2786 13.3212 25.3489 14.6634Z" fill="#F9B000"/>
<path fill-rule="evenodd" clip-rule="evenodd" d="M25.2455 14.686C25.5705 14.8687 25.5702 15.1657 25.2463 15.3494C22.3295 16.9915 23.0921 16.992 20.1695 15.3414C19.8442 15.156 19.8445 14.859 20.1684 14.6754C23.0628 13.4268 22.2989 13.397 25.2455 14.686Z" fill="#F9B200"/>
<path fill-rule="evenodd" clip-rule="evenodd" d="M25.1428 14.7051C25.4534 14.8816 25.4544 15.1677 25.1454 15.3415C22.3493 16.915 23.0824 16.9166 20.2795 15.334C19.9688 15.1574 19.9705 14.8709 20.2795 14.6972C23.0511 13.5013 22.3222 13.4699 25.1428 14.7051Z" fill="#FAB400"/>
<path fill-rule="evenodd" clip-rule="evenodd" d="M25.0394 14.7274C25.3379 14.8949 25.3371 15.1679 25.0406 15.3346C22.3678 16.8409 23.0682 16.8414 20.3913 15.3277C20.0924 15.1577 20.0932 14.8847 20.3897 14.718C23.0412 13.5729 22.3425 13.5454 25.0394 14.7274Z" fill="#FAB500"/>
<path fill-rule="evenodd" clip-rule="evenodd" d="M24.9391 14.7477C25.2233 14.9089 25.2234 15.1684 24.9395 15.3282C22.3897 16.763 23.0579 16.7649 20.5011 15.3217C20.2195 15.1601 20.2164 14.8984 20.5002 14.7386C23.0294 13.6489 22.3629 13.6201 24.9391 14.7477Z" fill="#FBB800"/>
<path d="M24.8357 14.7668C25.1051 14.9193 25.1065 15.1679 24.8351 15.3207C22.4082 16.6858 23.0438 16.6866 20.6102 15.313C20.3433 15.1602 20.342 14.9115 20.6107 14.7591C23.0197 13.72 22.3835 13.6952 24.8357 14.7668Z" fill="#FBB900"/>
<path d="M26.298 15.3296L23.003 16.0623L19.7081 15.6127L18.3745 15.0493L21.8707 17.0171C22.292 17.2525 23.0594 17.2525 23.4779 17.0171L26.8078 15.1048L26.298 15.3296Z" fill="url(#paint5_linear_692_24683)"/>
<path d="M22.6385 15.6736C21.1091 15.6736 19.6602 15.4409 18.3615 15.0283C19.577 15.7848 21.0501 16.2264 22.6385 16.2264C24.2243 16.2264 25.6974 15.7848 26.9155 15.0283C25.6169 15.4409 24.1679 15.6736 22.6385 15.6736Z" fill="#DA5C0E"/>
<path fill-rule="evenodd" clip-rule="evenodd" d="M41.1572 14.4385C41.2914 16.3296 41.2807 18.1836 40.897 19.9478C43.1052 22.2144 44.5086 24.9995 44.8654 28.4616C45.9333 23.3834 43.9531 18.8395 41.1572 14.4385Z" fill="url(#paint6_linear_692_24683)"/>
<path fill-rule="evenodd" clip-rule="evenodd" d="M4.86218 14.688C4.72533 16.5791 4.73875 18.4332 5.11976 20.1973C2.9115 22.4639 1.51087 25.249 1.15132 28.7111C0.0860939 23.6303 2.06361 19.0891 4.86218 14.688Z" fill="url(#paint7_linear_692_24683)"/>
<path d="M199.524 29.6392C197.324 29.6392 196.342 27.4149 196.342 24.7911C196.342 22.1674 197.324 19.9404 199.524 19.9404C201.88 19.9404 202.706 22.1674 202.706 24.7911C202.706 27.4149 201.826 29.6392 199.524 29.6392ZM207.453 11.1304C208.049 11.1304 208.631 11.2811 209.197 11.58C209.766 11.8842 210.209 12.3153 210.525 12.876C210.842 13.4367 211 14.0212 211 14.6322C211 15.2352 210.845 15.8145 210.531 16.3699C210.219 16.928 209.782 17.359 209.219 17.6658C208.655 17.9753 208.067 18.1287 207.453 18.1287C206.836 18.1287 206.248 17.9753 205.685 17.6658C205.121 17.359 204.684 16.928 204.37 16.3699C204.056 15.8145 203.9 15.2352 203.9 14.6322C203.9 14.0212 204.059 13.4367 204.375 12.876C204.695 12.3153 205.137 11.8842 205.706 11.58C206.272 11.2811 206.857 11.1304 207.453 11.1304ZM207.453 11.7096C206.954 11.7096 206.468 11.8366 205.996 12.0878C205.524 12.3391 205.153 12.7014 204.888 13.1669C204.619 13.6351 204.488 14.1244 204.488 14.6322C204.488 15.1347 204.62 15.6187 204.88 16.0816C205.143 16.5418 205.51 16.9041 205.98 17.1607C206.449 17.4199 206.94 17.5495 207.453 17.5495C207.963 17.5495 208.454 17.4199 208.926 17.1607C209.396 16.9041 209.76 16.5418 210.021 16.0816C210.281 15.6187 210.41 15.1347 210.41 14.6322C210.41 14.1244 210.278 13.6351 210.015 13.1669C209.75 12.7014 209.379 12.3391 208.907 12.0878C208.432 11.8366 207.947 11.7096 207.453 11.7096ZM205.894 16.5656V12.7993H207.206C207.657 12.7993 207.982 12.8337 208.183 12.9024C208.381 12.9712 208.542 13.0929 208.663 13.2674C208.781 13.442 208.84 13.6245 208.84 13.8202C208.84 14.0953 208.741 14.3333 208.542 14.5396C208.341 14.7433 208.078 14.857 207.748 14.8808C207.882 14.9364 207.992 15.0025 208.073 15.0818C208.226 15.2299 208.414 15.4786 208.639 15.8277L209.103 16.5656H208.349L208.011 15.9705C207.745 15.505 207.531 15.2114 207.367 15.095C207.254 15.0077 207.091 14.9654 206.873 14.9654H206.511V16.5656H205.894ZM206.511 14.447H207.26C207.617 14.447 207.861 14.3915 207.99 14.2884C208.121 14.1826 208.185 14.045 208.185 13.8705C208.185 13.7594 208.153 13.6589 208.092 13.5716C208.03 13.4843 207.941 13.4182 207.831 13.3732C207.719 13.3309 207.512 13.3097 207.211 13.3097H206.511V14.447ZM187.171 30.6654V26.2855C187.168 25.939 186.878 25.656 186.521 25.656H182.156C181.799 25.656 181.509 25.939 181.509 26.2908V28.5812V29.2266H181.506V30.6654L181.509 30.7792C181.509 31.0701 180.742 31.3028 179.795 31.3028C178.847 31.3028 178.083 31.0701 178.083 30.7792L178.08 30.6654V18.7979C178.08 18.5096 178.847 18.2715 179.795 18.2715C180.742 18.2715 181.509 18.5096 181.509 18.7979L181.506 18.9116L181.509 21.1782V23.3047C181.509 23.6565 181.799 23.9421 182.156 23.9421H186.521C186.878 23.9421 187.168 23.6618 187.171 23.31V21.3502V18.7979C187.171 18.5096 187.938 18.2715 188.885 18.2715C189.83 18.2715 190.597 18.5096 190.597 18.7979V28.7902L190.594 30.6654L190.597 30.7792C190.597 31.0701 189.83 31.3028 188.885 31.3028C187.938 31.3028 187.171 31.0701 187.171 30.7792V30.6654ZM68.3697 19.2237C70.0172 18.298 71.391 16.719 71.391 14.3466C71.391 10.4639 68.1711 7.76343 64.3717 7.76343C61.4712 7.76343 58.6055 9.47995 58.6055 12.3576H58.6216C58.6216 13.799 59.6305 14.9046 60.8997 14.9046C62.1635 14.9046 63.1911 13.8546 63.1911 12.5586C63.1911 11.9185 62.7296 10.9822 62.3245 10.5564L62.3218 10.5538C62.2171 10.4374 62.0991 10.1412 62.4103 9.8529C62.8128 9.517 63.3628 9.22607 64.4147 9.22607C66.5532 9.22607 67.4896 10.9638 67.4896 14.1297C67.4896 16.8856 65.8528 18.5439 63.8619 18.5439C63.6231 18.5439 63.3441 18.4831 63.057 18.4117C62.684 18.298 62.3137 18.216 62.0293 18.1816L61.9649 18.1737L61.7476 18.1604C61.0285 18.1604 60.4489 18.7555 60.4489 19.4855C60.4489 20.2208 61.0285 20.8159 61.7476 20.8159L61.9381 20.8053C62.5794 20.7498 63.3119 20.4535 63.8351 20.4535C66.0675 20.4535 67.4869 22.2944 67.4869 25.3889C67.4869 28.4834 66.5558 30.1444 64.1061 30.6416C63.0409 30.8585 61.4256 30.2872 60.8353 29.4699C60.3845 28.9383 60.6716 28.4834 61.066 28.2242L61.0714 28.2215C61.9112 27.7825 62.4854 26.8912 62.4854 25.865C62.4854 24.3997 61.3263 23.2148 59.8962 23.2148C58.466 23.2148 57.3096 24.3997 57.3096 25.865C57.3096 25.9628 57.3123 26.0607 57.3257 26.1585C57.5001 30.2502 61.2807 32.2365 63.9907 32.2365C68.2516 32.2365 71.9544 29.5599 71.9544 25.1985C71.9544 21.7866 70.4921 20.0515 68.3697 19.2237ZM84.933 19.2237C86.5805 18.298 87.9516 16.719 87.9516 14.3466C87.9516 10.4639 84.7318 7.76343 80.9351 7.76343C78.0345 7.76343 75.1662 9.47995 75.1662 12.3576H75.185C75.185 13.799 76.1912 14.9046 77.4603 14.9046C78.7268 14.9046 79.7545 13.8546 79.7545 12.5586C79.7545 11.9185 79.2903 10.9822 78.8851 10.5564V10.5538C78.7805 10.4374 78.6624 10.1412 78.9737 9.8529C79.3761 9.517 79.9262 9.22607 80.9753 9.22607C83.1165 9.22607 84.0529 10.9638 84.0529 14.1297C84.0529 16.8856 82.4135 18.5439 80.4253 18.5439C80.1865 18.5439 79.9074 18.4831 79.6203 18.4117C79.2473 18.298 78.8771 18.216 78.5926 18.1816L78.5282 18.1737L78.3109 18.1604C77.5945 18.1604 77.0122 18.7555 77.0122 19.4855C77.0122 20.2208 77.5945 20.8159 78.3109 20.8159L78.5041 20.8053C79.14 20.7498 79.8725 20.4535 80.3984 20.4535C82.6309 20.4535 84.0503 22.2944 84.0503 25.3889C84.0503 28.4834 83.1192 30.1444 80.6694 30.6416C79.6042 30.8585 77.9889 30.2872 77.3986 29.4699C76.9479 28.9383 77.2323 28.4834 77.6321 28.2242L77.6347 28.2215C78.4719 27.7825 79.0488 26.8912 79.0488 25.865C79.0488 24.3997 77.8896 23.2148 76.4595 23.2148C75.0294 23.2148 73.8702 24.3997 73.8702 25.865C73.8702 25.9628 73.8783 26.0607 73.8863 26.1585C74.0661 30.2502 77.844 32.2365 80.5514 32.2365C84.815 32.2365 88.5178 29.5599 88.5178 25.1985C88.5178 21.7866 87.0554 20.0515 84.933 19.2237ZM157.151 27.7402C156.961 29.1525 155.842 29.6921 154.656 29.6313C153.599 29.581 151.873 29.4012 151.696 27.8486V26.3675V26.0528L151.707 25.9602C151.79 25.6957 151.897 25.4841 152.724 25.4841C153.921 25.4841 155.38 25.41 156.032 25.7327H156.038C156.703 26.0871 157.162 26.7219 157.162 27.5392L157.151 27.7402ZM151.696 22.0696C151.696 20.5276 152.461 20.0224 153.803 19.9563C155.133 19.8928 156.271 20.8185 156.271 21.9876C156.271 22.7996 155.984 23.3285 155.581 23.6618C155.112 24.0162 153.843 24.0321 152.724 24.0321C151.922 24.0321 151.699 23.802 151.699 23.5163H151.696V23.2307V22.0696ZM157.513 24.6139C157.814 24.6139 159.357 23.6195 159.357 21.8051C159.357 20.0938 157.586 18.3085 153.843 18.3085C149.893 18.3085 148.27 19.5675 148.27 20.1838V30.6628C148.27 31.0145 148.57 31.3002 148.914 31.3002C149.314 31.3002 149.445 30.7844 150.39 30.7844C151.337 30.7844 154.353 31.3055 155.549 31.3055C158.152 31.3055 160.521 29.7794 160.521 27.6714C160.521 25.9496 159.206 24.8096 157.513 24.6139ZM143.107 19.9986C141.522 19.9986 140.239 20.7842 140.239 21.7548L140.266 30.7792C140.266 31.0701 139.496 31.3028 138.546 31.3028C137.593 31.3028 136.823 31.0701 136.823 30.7792L136.829 20.1838C136.829 19.1258 139.638 18.2689 143.107 18.2689C144.575 18.2689 146.62 18.6207 146.62 18.6207C147.1 18.7 147.427 19.147 147.347 19.6231C147.266 20.0991 146.821 20.4007 146.327 20.3398C145.836 20.279 145.423 19.9986 143.107 19.9986ZM130.775 30.6654V26.2855C130.773 25.939 130.486 25.656 130.129 25.656H125.766C125.406 25.656 125.117 25.939 125.117 26.2908V29.2266L125.114 30.6654L125.117 30.7792C125.117 31.0701 124.349 31.3028 123.402 31.3028C122.455 31.3028 121.69 31.0701 121.69 30.7792V18.7979C121.69 18.5096 122.455 18.2715 123.402 18.2715C124.349 18.2715 125.117 18.5096 125.117 18.7979L125.114 18.9116L125.117 21.1782V23.3047C125.117 23.6565 125.406 23.9421 125.766 23.9421H130.129C130.486 23.9421 130.773 23.6618 130.775 23.31V21.1782L130.778 18.9116V18.7979C130.778 18.5096 131.545 18.2715 132.493 18.2715C133.437 18.2715 134.204 18.5096 134.204 18.7979V28.7902L134.202 30.6654L134.204 30.7792C134.204 31.0701 133.437 31.3028 132.493 31.3028C131.545 31.3028 130.778 31.0701 130.778 30.7792L130.775 30.6654ZM171.426 18.7979C171.426 18.5096 172.193 18.2742 173.14 18.2742C174.087 18.2742 174.852 18.5096 174.852 18.7979V30.6628C174.852 31.0145 174.552 31.2975 174.206 31.2975C173.806 31.2975 173.674 30.7844 172.73 30.7844C171.783 30.7844 171.082 31.3028 168.241 31.3028C164.087 31.3028 162.335 28.4411 162.335 26.0475V18.7979C162.335 18.5096 163.081 18.2742 164.031 18.2742C164.981 18.2742 165.751 18.5096 165.751 18.7979L165.762 18.9116L165.764 23.7014V26.7775C165.764 28.3194 167.031 29.5704 168.595 29.5704C170.157 29.5704 171.423 28.3194 171.423 26.7801L171.426 18.7979ZM116.021 18.7979C116.021 18.5096 116.788 18.2742 117.735 18.2742C118.682 18.2742 119.45 18.5096 119.45 18.7979V30.6628C119.45 31.0145 119.146 31.3002 118.803 31.3002C118.4 31.3002 118.269 30.7844 117.325 30.7844C116.38 30.7844 115.68 31.3028 112.836 31.3028C108.682 31.3028 106.933 28.4411 106.933 26.0475V18.7979C106.933 18.5096 107.676 18.2742 108.628 18.2742C109.578 18.2742 110.348 18.5096 110.348 18.7979L110.359 18.9116L110.362 23.7014V26.7775C110.362 28.3194 111.625 29.5704 113.19 29.5704C114.754 29.5704 116.021 28.3194 116.021 26.7801V18.7979ZM101.013 21.7548C101.013 20.7842 99.7281 19.9986 98.1451 19.9986C96.562 19.9986 95.2767 20.7842 95.2767 21.7548L95.3036 30.7792C95.3036 31.0701 94.5335 31.3028 93.5836 31.3028C92.6311 31.3028 91.861 31.0701 91.861 30.7792L91.8691 20.1811C91.8691 19.1258 94.6757 18.2689 98.1451 18.2689C101.612 18.2689 104.421 19.1258 104.421 20.1811L104.416 30.7792C104.416 31.0701 103.643 31.3028 102.696 31.3028C101.743 31.3028 100.973 31.0701 100.973 30.7792L101.013 21.7548ZM203.675 29.864C204.306 30.8373 205.28 31.3081 206.712 31.3081C208.258 31.3081 209.363 30.2581 209.363 28.9595C209.363 28.6685 209.127 28.4358 208.832 28.4358C208.54 28.4358 208.304 28.6685 208.304 28.9595H208.298C208.298 29.6762 207.606 30.0254 207.195 30.0254C206.356 30.0254 206.141 29.3139 206.141 28.4384V24.7911H206.136C206.136 21.1915 203.176 18.2715 199.524 18.2715C195.872 18.2715 192.913 21.1915 192.913 24.7911C192.913 28.3908 195.872 31.3081 199.524 31.3081C201.096 31.3081 202.54 30.7659 203.675 29.864Z" fill="#004A56"/>
<defs>
<linearGradient id="paint0_linear_692_24683" x1="-1.49714" y1="15.484" x2="14.4721" y2="30.1801" gradientUnits="userSpaceOnUse">
<stop stop-color="#1A1A18"/>
<stop offset="1" stop-color="#565655"/>
</linearGradient>
<linearGradient id="paint1_linear_692_24683" x1="47.9002" y1="17.3883" x2="30.6724" y2="32.3652" gradientUnits="userSpaceOnUse">
<stop stop-color="#1A1A18"/>
<stop offset="1" stop-color="#565655"/>
</linearGradient>
<radialGradient id="paint2_radial_692_24683" cx="0" cy="0" r="1" gradientUnits="userSpaceOnUse" gradientTransform="translate(22.8529 14.2476) rotate(-7.40898) scale(425.235 420.893)">
<stop stop-color="white"/>
<stop offset="0.69" stop-color="#FEFFFF"/>
<stop offset="0.91" stop-color="white"/>
<stop offset="1" stop-color="white"/>
</radialGradient>
<radialGradient id="paint3_radial_692_24683" cx="0" cy="0" r="1" gradientUnits="userSpaceOnUse" gradientTransform="translate(19.3262 11.2452) rotate(1.99668) scale(3.05616 3.01806)">
<stop stop-color="#ECECEC"/>
<stop offset="1" stop-color="#1A1A18"/>
</radialGradient>
<radialGradient id="paint4_radial_692_24683" cx="0" cy="0" r="1" gradientUnits="userSpaceOnUse" gradientTransform="translate(27.4293 11.2452) rotate(2.01915) scale(3.14257 3.10337)">
<stop stop-color="#ECECEC"/>
<stop offset="1" stop-color="#1A1A18"/>
</radialGradient>
<linearGradient id="paint5_linear_692_24683" x1="18.3852" y1="16.1443" x2="26.8105" y2="16.1443" gradientUnits="userSpaceOnUse">
<stop stop-color="#FFCC00"/>
<stop offset="0.28" stop-color="#FFCC00"/>
<stop offset="0.71" stop-color="#D57F00"/>
<stop offset="1" stop-color="#D57F00"/>
</linearGradient>
<linearGradient id="paint6_linear_692_24683" x1="43.768" y1="18.628" x2="41.3496" y2="22.4681" gradientUnits="userSpaceOnUse">
<stop stop-color="#565655"/>
<stop offset="1" stop-color="#3A3A39"/>
</linearGradient>
<linearGradient id="paint7_linear_692_24683" x1="1.80334" y1="18.8404" x2="5.36989" y2="22.7267" gradientUnits="userSpaceOnUse">
<stop stop-color="#3A3A39"/>
<stop offset="1" stop-color="#565655"/>
</linearGradient>
</defs>
</svg>
