<svg width="309" height="26" viewBox="0 0 309 26" fill="none" xmlns="http://www.w3.org/2000/svg">
<g clip-path="url(#clip0_786_24868)">
<path d="M49.5997 1.04133C48.9245 1.18269 47.3608 1.46542 46.1525 1.71281C44.6599 1.99554 43.9136 2.31362 43.9136 2.63169C43.9136 2.91442 44.269 3.12647 44.7665 3.12647C45.2285 3.12647 45.7616 3.4092 45.9037 3.72728C46.0814 4.08069 46.2236 8.42769 46.2591 13.3755L46.3302 22.3522L47.3253 22.6703C47.8939 22.8117 49.813 22.9884 51.5544 23.0237C54.4685 23.0591 54.9305 22.9884 56.6364 22.0342C58.8397 20.8325 59.977 19.1715 60.6167 16.1675C61.0076 14.5064 60.9721 13.9056 60.439 12.1032C59.2307 7.86223 56.1388 6.27186 51.661 7.5795C51.1279 7.7562 51.0213 7.36745 50.9502 4.29274L50.8436 0.829277L49.5997 1.04133ZM53.8288 9.69998C54.2908 10.0181 54.8594 10.8309 55.1437 11.4671C55.7124 12.8454 55.7834 16.5209 55.2859 18.3586C54.7884 20.1257 53.1536 21.8574 51.9808 21.8574H51.0213V15.496V9.13452H52.0164C52.5494 9.13452 53.3668 9.38191 53.8288 9.69998Z" fill="#004A56"/>
<path d="M0.805303 1.25353C0.272225 1.78366 0.62761 2.34912 1.58715 2.52583C3.39961 2.91458 3.64838 3.4447 3.89715 8.07443C4.18146 12.6688 3.86161 19.5251 3.32854 20.5146C3.18638 20.868 2.51115 21.2568 1.87146 21.4335C1.2673 21.6102 0.734226 21.9636 0.734226 22.2464C0.734226 22.6351 1.80038 22.7411 6.7047 22.8472C12.3198 22.9178 12.6396 22.8825 12.6396 22.2817C12.6396 21.7516 12.2842 21.5395 11.2536 21.3628C10.4718 21.2568 9.79655 20.9034 9.65439 20.5853C9.51224 20.2672 9.33455 18.3588 9.19239 16.3443L8.97916 12.6688L10.7205 12.8809C12.533 13.1283 13.6702 14.0118 13.7058 15.2134C13.7058 15.6022 13.9901 15.8496 14.4166 15.8496C15.0918 15.8496 15.1273 15.6022 15.1273 12.1387C15.1273 8.67524 15.0918 8.42785 14.4166 8.42785C14.0256 8.42785 13.7058 8.6399 13.7058 8.92263C13.7058 9.17002 13.3149 9.80616 12.8173 10.3363C12.1776 11.0431 11.609 11.2552 10.5073 11.2552H9.08578V7.75636C9.08578 5.81258 9.19239 4.01017 9.29901 3.69209C9.4767 3.268 10.0453 3.12663 11.8578 3.12663C14.6298 3.12663 16.1224 4.04551 17.1175 6.30736C17.8638 8.00375 18.7878 8.07443 18.9655 6.48407C19.0366 5.9186 19.001 4.43426 18.8589 3.23265L18.6101 1.00614H9.83209C4.99885 1.00614 0.911918 1.11217 0.805303 1.25353Z" fill="#004A56"/>
<path d="M23.4788 6.83739C23.3011 6.90808 22.4838 7.15547 21.7019 7.33217C18.7167 8.10968 16.5488 11.3258 16.5488 15.0013C16.5488 18.4294 18.0059 21.1153 20.6358 22.4937C22.2705 23.3419 26.3219 23.2005 28.1699 22.2816C32.6122 20.0198 33.5718 12.8808 29.9468 8.92254C28.703 7.54422 24.9004 6.30727 23.4788 6.83739ZM26.1798 9.80608C27.4947 12.28 27.317 18.9949 25.8955 20.974C23.3367 24.4728 20.5291 17.6519 21.9151 11.2904C22.5904 8.07434 24.8293 7.29683 26.1798 9.80608Z" fill="#004A56"/>
<path d="M38.5474 6.80202C38.4053 6.97873 32.9323 8.07431 32.2927 8.07431C32.2216 8.07431 32.186 8.3217 32.186 8.60443C32.186 8.88717 32.3993 9.13456 32.6836 9.13456C33.963 9.13456 34.3183 10.5482 34.3183 15.4253V20.1611L33.2522 21.1507C32.6836 21.6808 32.186 22.3169 32.186 22.529C32.186 22.7764 33.7497 22.9177 36.9837 22.9177C40.7153 22.9177 41.7814 22.8117 41.7814 22.4583C41.7814 22.2109 41.2484 21.7515 40.6442 21.4687C39.2227 20.8679 39.045 20.1611 38.9739 15.2486C38.9384 11.8912 39.0094 11.6085 39.6847 11.2197C40.3954 10.8663 41.426 10.9016 43.0608 11.4318C43.7361 11.6438 43.9137 11.4318 44.589 9.70002C45.0154 8.60443 45.3353 7.61487 45.3353 7.50885C45.3353 7.43817 44.9088 7.19078 44.3757 6.97873C43.0608 6.48395 40.7508 7.40283 39.8268 8.78114L39.116 9.84139L38.9384 8.21568C38.8317 7.33214 38.654 6.696 38.5474 6.80202Z" fill="#004A56"/>
<path d="M81.229 7.19077C78.5281 8.07431 77.3197 9.59399 77.3197 12.0679C77.3197 14.1177 78.3148 15.1426 81.7265 16.6976C83.8233 17.6518 84.463 18.1113 84.6407 18.8534C84.8894 19.843 84.1431 20.9739 82.9704 21.3274C81.3001 21.8575 78.919 20.1964 78.2437 18.0406C78.1016 17.6165 77.7462 17.2631 77.4619 17.2631C77.071 17.2631 76.9644 17.8285 76.9644 19.6663V22.1049L78.457 22.5996C79.2744 22.847 81.0868 23.0591 82.4373 23.0591C86.2044 23.0591 88.3011 21.7514 89.0475 18.9595C89.6516 16.839 88.621 14.8599 86.3465 13.7996C83.3968 12.386 82.4728 11.8912 82.0464 11.3257C80.9447 9.98275 81.9753 8.42772 83.8944 8.42772C85.1382 8.42772 86.5953 9.73536 87.0928 11.255C87.1994 11.6438 87.5548 11.9619 87.8391 11.9619C88.2301 11.9619 88.3367 11.4317 88.3367 9.84138V7.75623L87.0218 7.40282C84.4985 6.73133 82.8282 6.66065 81.229 7.19077Z" fill="#004A56"/>
<path d="M66.8358 7.40276C65.6275 7.72083 63.1043 9.80598 63.1043 10.4421C63.1043 10.6542 62.8911 10.9016 62.6778 10.9722C62.358 11.0783 62.2158 12.2092 62.2158 14.8598C62.2158 18.3586 62.2514 18.606 63.2109 19.8783C63.7795 20.5851 64.8812 21.61 65.6986 22.1048C66.9424 22.8823 67.5821 23.0237 69.6789 23.0237C71.9534 23.0237 72.3798 22.9177 74.0501 21.8221C75.1874 21.0799 75.8626 20.4084 75.7915 20.0903C75.6849 19.5249 75.5072 19.5602 73.2328 20.3377C72.0245 20.7618 71.598 20.7618 70.3897 20.3377C68.6128 19.7369 67.1201 17.8638 66.8003 15.9201L66.5515 14.4357H71.4558H76.3246L76.1114 12.8807C75.7205 10.2654 74.6898 8.60437 72.9485 7.75618C71.3137 6.97866 68.7904 6.8373 66.8358 7.40276ZM70.7451 9.7353C71.0294 10.4421 71.2781 11.4317 71.2781 11.9971C71.2781 13.0221 71.2781 13.0221 68.9681 13.0221H66.6937L66.9069 11.8558C67.3334 9.52325 68.6483 7.89754 69.75 8.32164C70.0343 8.42766 70.4608 9.06381 70.7451 9.7353Z" fill="#004A56"/>
</g>
<g opacity="0.45">
<path d="M105.959 8.00342L114.955 17.0073" stroke="#004A56"/>
<path d="M114.955 8.00342L105.959 17.0073" stroke="#004A56"/>
</g>
<g clip-path="url(#clip1_786_24868)">
<path d="M160.086 24.0053C160.093 23.8647 160.105 23.7247 160.105 23.5841C160.105 19.9834 160.091 16.382 160.119 12.7813C160.126 12.0241 160.219 11.2702 160.396 10.5347C160.81 8.8219 161.974 7.87079 163.627 7.4893C164.972 7.17877 166.331 7.15924 167.695 7.28293C168.212 7.32837 168.726 7.4128 169.231 7.53552C170.908 7.94956 171.867 9.06929 172.23 10.7599C172.522 12.1205 172.453 13.5 172.417 14.873C172.399 15.5749 172.31 16.273 172.151 16.9562C171.776 18.5492 170.789 19.5733 169.206 19.9547C167.809 20.2913 166.403 20.3453 164.999 20.0068C164.643 19.9215 164.307 19.7464 163.958 19.6117C163.943 19.6198 163.93 19.6322 163.923 19.6475C163.923 21.0996 163.923 22.5516 163.923 24.0033H160.081L160.086 24.0053ZM163.859 13.7604L163.907 13.7637C163.907 14.1543 163.89 14.5449 163.912 14.9355C163.927 15.3241 163.97 15.7112 164.04 16.0936C164.168 16.7446 164.57 17.1723 165.222 17.2446C165.845 17.322 166.473 17.3388 167.099 17.2947C167.955 17.2231 168.398 16.8078 168.481 15.9465C168.582 14.9049 168.59 13.8503 168.605 12.8008C168.603 12.3571 168.563 11.9143 168.487 11.4774C168.363 10.6857 168.012 10.2847 167.234 10.1832C166.622 10.0995 166.003 10.091 165.389 10.1578C164.524 10.2587 164.164 10.6174 164.028 11.4982C163.915 12.2423 163.912 13.0085 163.859 13.7604Z" fill="#004A56"/>
<path d="M130.955 6.29808C131.067 5.79681 131.187 5.29684 131.292 4.79361C131.389 4.32879 131.472 3.86007 131.557 3.39265C131.59 3.20972 131.665 3.12509 131.877 3.12574C136.689 3.13268 141.5 3.13485 146.312 3.13225C146.383 3.13225 146.455 3.14722 146.555 3.15763C146.352 4.1706 146.153 5.16338 145.958 6.15681C145.916 6.37165 145.766 6.3443 145.614 6.3443H141.165C140.728 6.3443 140.727 6.3443 140.727 6.77852C140.727 10.9983 140.729 15.2181 140.734 19.438C140.734 19.7465 140.659 19.8487 140.344 19.8435C139.31 19.8247 138.274 19.8364 137.24 19.8364C136.781 19.8364 136.781 19.8364 136.781 19.3807C136.781 15.226 136.781 11.0712 136.781 6.91654C136.781 6.7974 136.806 6.66785 136.768 6.56174C136.737 6.47581 136.631 6.35732 136.557 6.35732C134.691 6.35211 132.825 6.35732 130.958 6.36579V6.30069L130.955 6.29808Z" fill="#004A56"/>
<path d="M244.42 19.8572V19.4484C244.42 17.0614 244.42 14.6744 244.42 12.2874C244.42 12.0595 244.42 11.8317 244.406 11.6045C244.352 10.8233 244.027 10.3949 243.274 10.3025C242.673 10.2247 242.064 10.2247 241.463 10.3025C240.643 10.4131 240.261 10.9007 240.183 11.7627C240.154 12.0647 240.14 12.3687 240.14 12.6741C240.136 14.9309 240.136 17.1877 240.14 19.4445V19.8559H236.303V2.41553H240.135V8.02979C240.788 7.57439 241.549 7.3047 242.34 7.24859C243.556 7.14182 244.772 7.14898 245.939 7.59036C247.385 8.13656 248.136 9.22829 248.236 10.7647C248.3 11.7158 248.271 12.6728 248.273 13.6291C248.277 15.56 248.273 17.4908 248.273 19.423V19.8625H244.42V19.8572Z" fill="#004A56"/>
<path d="M178.856 6.36839V10.057H186.052L185.427 13.3185H178.857V19.8507C178.741 19.8631 178.659 19.8787 178.577 19.8787C177.435 19.8787 176.294 19.8735 175.152 19.8852C174.911 19.8852 174.844 19.809 174.844 19.5695C174.85 14.1778 174.851 8.78644 174.849 3.39525C174.849 3.31192 174.865 3.22794 174.875 3.12964H187.043C186.901 3.87504 186.762 4.60481 186.622 5.33394C186.575 5.57872 186.501 5.82024 186.483 6.06697C186.463 6.32737 186.34 6.37425 186.111 6.37295C183.827 6.36578 181.544 6.36839 179.26 6.36839H178.855H178.856Z" fill="#004A56"/>
<path d="M158.006 13.8263C157.912 14.7279 157.866 15.7266 157.695 16.7024C157.386 18.4673 156.302 19.5447 154.599 19.9294C152.748 20.3474 150.88 20.3376 149.019 19.9692C147.122 19.5935 145.975 18.4237 145.671 16.4869C145.381 14.6439 145.381 12.7658 145.671 10.9228C145.971 8.99516 147.107 7.82791 149 7.46726C150.913 7.10204 152.831 7.08707 154.735 7.54082C156.509 7.96397 157.48 9.16833 157.753 10.9508C157.89 11.8667 157.918 12.8016 158.006 13.8263ZM154.122 13.8914C154.084 13.0646 154.067 12.4038 154.019 11.7431C153.95 10.7783 153.552 10.2822 152.639 10.1598C152.036 10.0811 151.425 10.0811 150.822 10.1598C149.918 10.2763 149.528 10.6552 149.449 11.592C149.351 12.7541 149.362 13.9272 149.357 15.0957C149.365 15.4633 149.415 15.8286 149.507 16.1842C149.648 16.7922 150.04 17.1874 150.654 17.248C151.288 17.3211 151.927 17.337 152.564 17.2955C153.432 17.2239 153.827 16.845 153.961 15.9609C154.073 15.222 154.08 14.4734 154.122 13.8914Z" fill="#004A56"/>
<path d="M204.101 12.6284C204.057 12.1909 204.052 11.853 203.983 11.5288C203.847 10.8902 203.375 10.5067 202.548 10.4703C201.227 10.4123 199.905 10.4202 198.583 10.4052C198.095 10.3993 197.608 10.4052 197.08 10.4052L197.623 7.58047C197.723 7.57136 197.806 7.55638 197.89 7.55638C199.522 7.55118 201.155 7.50886 202.785 7.55964C203.551 7.58901 204.31 7.71229 205.047 7.92681C206.814 8.43264 207.746 9.68452 207.773 11.5568C207.802 13.6277 207.794 15.6998 207.773 17.7707C207.76 19.0727 207.12 19.7653 205.83 19.8265C204.574 19.8858 203.315 19.8845 202.057 19.8767C201.109 19.8701 200.16 19.8337 199.215 19.7647C198.812 19.7248 198.415 19.632 198.036 19.4887C196.819 19.0609 196.108 18.1866 196.004 16.8794C195.942 16.2004 195.949 15.5167 196.025 14.8392C196.186 13.5801 196.935 12.7683 198.105 12.3654C199.275 11.9624 200.489 11.9266 201.709 12.0047C202.513 12.0529 203.291 12.2085 204.101 12.6284ZM204.003 17.2401C204.017 17.1978 204.027 17.1542 204.032 17.1099C204.032 16.6542 204.043 16.1985 204.025 15.7428C203.999 15.0508 203.726 14.653 203.052 14.5885C202.233 14.5098 201.4 14.5436 200.574 14.5729C200.417 14.5788 200.265 14.6254 200.132 14.7084C199.998 14.7914 199.888 14.908 199.812 15.0468C199.242 16.0377 199.795 17.175 200.905 17.229C201.883 17.2772 202.864 17.257 203.843 17.2648C203.897 17.2613 203.951 17.253 204.003 17.2401Z" fill="#004A56"/>
<path d="M273.163 14.9662C273.259 15.4011 273.304 15.78 273.428 16.1302C273.606 16.6334 274.04 16.8404 274.526 16.9049C274.95 16.9581 275.375 16.9844 275.802 16.9837C277.21 16.9895 278.619 16.9798 280.027 16.9759H280.375C280.2 17.9035 280.034 18.8045 279.852 19.7023C279.834 19.7473 279.806 19.7871 279.77 19.8183C279.733 19.8494 279.69 19.8708 279.643 19.8806C277.554 19.8891 275.462 20.0421 273.378 19.7817C273.009 19.7295 272.645 19.6461 272.289 19.5324C270.805 19.0812 269.875 18.0689 269.588 16.5338C269.23 14.6432 269.233 12.7004 269.595 10.8108C269.937 9.03359 271.044 7.91907 272.769 7.49071C274.443 7.06434 276.194 7.05875 277.871 7.47444C279.897 7.98027 280.965 9.31092 281.072 11.4371C281.099 12.087 281.082 12.7381 281.02 13.3856C280.928 14.4272 280.4 14.9297 279.37 14.948C277.877 14.9747 276.383 14.9616 274.888 14.9642C274.344 14.9669 273.802 14.9662 273.163 14.9662ZM277.453 12.3733C277.416 11.9709 277.409 11.592 277.343 11.2229C277.198 10.4157 276.883 10.0804 276.081 9.99838C275.515 9.94044 274.934 9.97495 274.364 10.0205C274.187 10.0304 274.014 10.0868 273.864 10.1844C273.714 10.2819 273.592 10.4172 273.508 10.5771C273.213 11.1402 273.21 11.7489 273.225 12.3733H277.451H277.453Z" fill="#004A56"/>
<path d="M260.908 7.54019V5.93091H263.413V7.53238H267.344L266.784 10.4398C266.476 10.4398 266.19 10.4398 265.905 10.4398C264.401 10.4287 262.896 10.4131 261.392 10.4079C261.136 10.4084 260.881 10.4317 260.629 10.4775C260.339 10.529 260.153 10.6976 260.135 11.0244C260.113 11.4234 260.203 11.6663 260.532 11.7457C260.996 11.857 261.475 11.9091 261.95 11.9657C262.91 12.0816 263.878 12.1714 264.839 12.299C265.12 12.3361 265.396 12.4468 265.661 12.5549C266.744 12.9963 267.407 13.7996 267.518 14.987C267.587 15.6654 267.579 16.3495 267.494 17.026C267.342 18.1327 266.674 18.8807 265.675 19.3253C264.73 19.7459 263.728 19.8676 262.711 19.9047C262.287 19.9204 262.287 19.9158 262.286 20.3604C262.286 20.4776 262.286 20.5948 262.286 20.7315H259.776V19.9158H256.354C256.441 19.4126 256.514 18.9803 256.592 18.5487C256.67 18.1171 256.762 17.6959 256.826 17.2701C256.859 17.0358 256.954 16.9798 257.181 16.983C258.856 17.0104 260.53 17.0305 262.205 17.0338C262.599 17.0347 262.992 16.9955 263.378 16.9166C263.77 16.8359 263.899 16.6093 263.897 16.1764C263.897 15.7591 263.78 15.5443 263.385 15.4655C262.886 15.3659 262.373 15.3314 261.865 15.28C260.986 15.1908 260.093 15.1758 259.227 15.0118C257.476 14.6798 256.585 13.6128 256.479 11.8108C256.45 11.3345 256.471 10.8564 256.54 10.3844C256.692 9.36756 257.268 8.6482 258.17 8.1951C258.868 7.84421 259.617 7.68927 260.384 7.60269C260.553 7.58381 260.72 7.56102 260.908 7.54019Z" fill="#004A56"/>
<path d="M213.985 19.8617H210.172C210.156 19.7976 210.145 19.7323 210.14 19.6664C210.144 16.8573 210.14 14.0483 210.163 11.2398C210.176 10.7957 210.248 10.3554 210.376 9.93066C210.78 8.49845 211.824 7.79536 213.177 7.47572C214.649 7.12743 216.142 7.12938 217.632 7.26089C218.331 7.32274 219.022 7.46224 219.692 7.67688C221.154 8.14756 221.874 9.25817 222.052 10.7652C222.094 11.1096 222.115 11.4561 222.116 11.8029C222.122 14.3952 222.123 16.9873 222.12 19.5792C222.12 19.6645 222.112 19.7504 222.107 19.8578H218.274C218.274 19.712 218.274 19.5844 218.274 19.4568C218.274 17.0381 218.274 14.6196 218.274 12.2014C218.273 11.9402 218.256 11.6794 218.225 11.4202C218.155 10.8232 217.858 10.4742 217.282 10.3336C216.583 10.1669 215.858 10.153 215.154 10.2926C214.355 10.4436 214.031 10.8408 213.998 11.6838C213.977 12.2046 213.987 12.7254 213.987 13.2462C213.987 15.3177 213.987 17.3892 213.987 19.4607V19.8591L213.985 19.8617Z" fill="#004A56"/>
<path d="M297.293 7.49329H299.539C299.944 7.49329 300.35 7.505 300.756 7.48873C300.982 7.47961 301.048 7.55969 301.046 7.78494C301.037 8.88058 301.042 9.97622 301.042 11.0719C301.042 12.4168 301.042 13.7625 301.042 15.1081C301.046 16.4101 301.388 16.8111 302.663 16.8892C303.205 16.9124 303.748 16.8744 304.282 16.776C304.794 16.69 305.096 16.3203 305.162 15.7903C305.198 15.511 305.217 15.2296 305.218 14.9479C305.222 12.5939 305.222 10.2397 305.218 7.88519V7.51412H308.924C308.938 7.58131 308.947 7.64939 308.952 7.71788C308.947 10.4625 308.952 13.2072 308.926 15.9518C308.912 16.3853 308.839 16.8147 308.709 17.2278C308.309 18.5949 307.3 19.2661 306.008 19.5766C304.57 19.9216 303.107 19.9145 301.648 19.7908C301.012 19.7366 300.382 19.6157 299.77 19.4301C298.316 18.9874 297.551 17.9328 297.361 16.4238C297.317 16.0688 297.294 15.7113 297.294 15.3535C297.288 12.8363 297.287 10.3191 297.29 7.80186C297.293 7.71593 297.293 7.63 297.293 7.49329Z" fill="#004A56"/>
<path d="M234.298 16.9797C234.178 17.6034 234.062 18.2049 233.945 18.8064C233.889 19.0929 233.845 19.3839 233.763 19.6632C233.736 19.7543 233.607 19.878 233.523 19.878C231.787 19.878 230.046 20.0381 228.317 19.7673C227.845 19.6932 227.379 19.5764 226.927 19.4184C225.559 18.9399 224.733 17.94 224.459 16.5156C224.121 14.7658 224.108 12.9671 224.421 11.2125C224.779 9.19436 225.936 8.13062 227.974 7.7335C229.369 7.46138 230.778 7.5382 232.183 7.52453C232.853 7.51932 233.523 7.52453 234.265 7.52453L233.686 10.5133C233.592 10.5133 233.501 10.5133 233.409 10.5133C232.396 10.4957 231.384 10.4723 230.371 10.4632C230.105 10.4644 229.839 10.4849 229.576 10.5244C228.777 10.6331 228.372 10.9749 228.253 11.7873C228.057 13.0857 228.062 14.4075 228.268 15.7044C228.388 16.4407 228.806 16.8385 229.541 16.9068C230.293 16.9765 231.051 16.9771 231.807 16.9856C232.554 16.9934 233.3 16.9719 234.048 16.9654C234.117 16.9615 234.19 16.9706 234.298 16.9797Z" fill="#004A56"/>
<path d="M191.379 19.8584H187.558C187.543 19.7893 187.533 19.7193 187.528 19.6488C187.536 16.9145 187.522 14.1803 187.571 11.4461C187.581 10.8667 187.747 10.2619 187.965 9.72029C188.434 8.55499 189.412 8.0062 190.566 7.73278C191.847 7.42941 193.152 7.49256 194.453 7.48474C194.921 7.48474 195.389 7.48474 195.919 7.48474L195.338 10.5445C195.245 10.5445 195.154 10.5445 195.064 10.5445C194.255 10.5536 193.441 10.5145 192.637 10.5861C191.794 10.661 191.447 11.0952 191.394 11.9532C191.38 12.1804 191.38 12.4089 191.38 12.6361C191.38 14.9034 191.38 17.1706 191.38 19.4378V19.8506L191.379 19.8584Z" fill="#004A56"/>
<path d="M291.64 19.8664H287.832C287.811 19.7945 287.797 19.7209 287.79 19.6464C287.797 16.9121 287.798 14.1779 287.821 11.4437C287.827 10.7785 287.991 10.1247 288.299 9.53755C288.901 8.37485 289.943 7.88074 291.144 7.66851C292.795 7.37686 294.458 7.48363 296.172 7.5331L295.6 10.546C295.506 10.546 295.415 10.546 295.324 10.546C294.515 10.5551 293.701 10.5167 292.897 10.5876C292.056 10.6618 291.709 11.0974 291.656 11.9593C291.642 12.1865 291.642 12.415 291.642 12.6422C291.642 14.9094 291.642 17.1767 291.642 19.4439V19.8618L291.64 19.8664Z" fill="#004A56"/>
<path d="M250.633 19.8532V7.57983H254.436V19.8532H250.633Z" fill="#004A56"/>
<path d="M255.403 3.67327C255.125 3.67327 254.944 3.68694 254.762 3.67001C254.513 3.64658 254.426 3.73511 254.431 3.99552C254.447 4.6999 254.437 5.40494 254.436 6.10998C254.436 6.19461 254.424 6.27924 254.416 6.38796H250.637C250.637 6.0234 250.637 5.67185 250.637 5.31575C250.637 4.84963 250.632 4.38286 250.637 3.91674C250.637 3.73642 250.578 3.6609 250.397 3.66936C250.189 3.67913 249.979 3.66936 249.688 3.66936L252.692 1.00024L255.403 3.67327Z" fill="#004A56"/>
<path d="M285.868 18.2342C285.878 19.1749 285.074 20.001 284.14 20.0088C283.205 20.0166 282.404 19.2035 282.394 18.2511C282.383 17.3137 283.186 16.4875 284.122 16.4752C285.044 16.4661 285.859 17.285 285.868 18.2342Z" fill="#004A56"/>
</g>
<defs>
<clipPath id="clip0_786_24868">
<rect width="89.9588" height="25.0109" fill="white"/>
</clipPath>
<clipPath id="clip1_786_24868">
<rect width="178" height="23" fill="white" transform="translate(130.955 1.00537)"/>
</clipPath>
</defs>
</svg>
