<svg width="211" height="40" viewBox="0 0 211 40" fill="none" xmlns="http://www.w3.org/2000/svg">
<path fill-rule="evenodd" clip-rule="evenodd" d="M10.7275 36.1455C13.3195 36.2804 21.1705 35.754 22.8797 34.4263L23.1024 34.4131C24.9994 35.8731 33.0839 35.9736 36.4701 35.9736C34.4738 36.6057 25.249 36.5581 22.8314 36.0661C19.7806 36.4443 12.8741 36.7432 10.7275 36.1455Z" fill="#1A1A18"/>
<path fill-rule="evenodd" clip-rule="evenodd" d="M22.8746 34.5855C19.5464 37.2077 6.095 36.6473 5.43263 35.1338C4.70662 33.6739 8.17307 31.5767 9.78571 30.8037L11.04 30.2653C14.3656 32.9751 18.4949 34.7308 22.8746 34.5855Z" fill="#F39100"/>
<path fill-rule="evenodd" clip-rule="evenodd" d="M22.4535 34.588C19.228 37.1291 6.19642 36.585 5.55259 35.1212C4.85 33.7042 8.20731 31.6724 9.77063 30.9239C10.1776 30.7505 10.582 30.5763 10.9864 30.4021C14.2091 33.0266 18.2094 34.7284 22.4535 34.588Z" fill="#F39300"/>
<path fill-rule="evenodd" clip-rule="evenodd" d="M22.0277 34.5909C18.9047 37.0505 6.29224 36.5242 5.67041 35.1083C4.98982 33.7391 8.2397 31.7679 9.75378 31.0441C10.1448 30.8771 10.5367 30.7076 10.9277 30.5407C14.0499 33.081 17.9218 34.7265 22.0277 34.5909Z" fill="#F49500"/>
<path fill-rule="evenodd" clip-rule="evenodd" d="M21.6041 34.5921C18.5839 36.9708 6.38796 36.4632 5.7887 35.0927C5.13068 33.769 8.27308 31.8663 9.736 31.1636C10.1145 31.0013 10.493 30.839 10.8714 30.6767C13.8876 33.1334 17.6331 34.7255 21.6041 34.5921Z" fill="#F49700"/>
<path fill-rule="evenodd" clip-rule="evenodd" d="M21.1797 34.5964C18.2655 36.8921 6.48607 36.4021 5.90617 35.0787C5.27085 33.8004 8.30496 31.9606 9.71783 31.2851C10.0837 31.1275 10.4522 30.9706 10.8181 30.813C13.7305 33.1872 17.3444 34.7246 21.1797 34.5964Z" fill="#F49900"/>
<path fill-rule="evenodd" clip-rule="evenodd" d="M20.7551 34.5997C17.9434 36.814 6.58386 36.3391 6.02597 35.0637C5.41084 33.8299 8.33859 32.0566 9.70221 31.4057C10.0555 31.2528 10.4081 31.1024 10.7614 30.9495C13.5708 33.2387 17.0554 34.7225 20.7551 34.5997Z" fill="#F59B00"/>
<path fill-rule="evenodd" clip-rule="evenodd" d="M20.3308 34.6024C17.6218 36.7355 6.68134 36.2795 6.14275 35.0512C5.55284 33.8636 8.37215 32.1531 9.68389 31.526C10.0239 31.3803 10.3638 31.2346 10.7038 31.089C13.4103 33.2929 16.7694 34.7208 20.3308 34.6024Z" fill="#F59D00"/>
<path fill-rule="evenodd" clip-rule="evenodd" d="M19.9085 34.6016C17.3023 36.6537 6.77909 36.2137 6.26232 35.0334C5.695 33.8911 8.40432 32.2485 9.66748 31.6433C9.99485 31.5023 10.3215 31.3638 10.6488 31.2228C13.2519 33.3439 16.4827 34.7151 19.9085 34.6016Z" fill="#F69F00"/>
<path fill-rule="evenodd" clip-rule="evenodd" d="M19.4827 34.6081C16.9823 36.577 6.87486 36.1566 6.37829 35.0208C5.83373 33.9239 8.43668 32.3477 9.6506 31.7671C9.96206 31.6326 10.2769 31.4963 10.5909 31.3625C13.0909 33.3987 16.1925 34.7162 19.4827 34.6081Z" fill="#F6A000"/>
<path fill-rule="evenodd" clip-rule="evenodd" d="M19.0596 34.6092C16.6619 36.497 6.97435 36.0929 6.49709 35.0043C5.97518 33.9527 8.47233 32.4402 9.6336 31.886C9.93504 31.7568 10.2365 31.6277 10.5353 31.4979C12.9325 33.4488 15.9051 34.7123 19.0596 34.6092Z" fill="#F6A300"/>
<path fill-rule="evenodd" clip-rule="evenodd" d="M18.6365 34.6109C16.3407 36.4199 7.07298 36.0315 6.61766 34.9908C6.11588 33.9838 8.50397 32.5369 9.61672 32.0047C9.90482 31.8828 10.1937 31.7584 10.4818 31.6365C12.7734 33.5016 15.6195 34.712 18.6365 34.6109Z" fill="#F7A400"/>
<path fill-rule="evenodd" clip-rule="evenodd" d="M18.2138 34.6151C16.0215 36.3405 7.17285 35.9712 6.73681 34.9777C6.26023 34.0168 8.53914 32.6352 9.6 32.1268C9.8755 32.0096 10.151 31.8924 10.4247 31.7719C12.6153 33.555 15.3324 34.7113 18.2138 34.6151Z" fill="#F7A700"/>
<path fill-rule="evenodd" clip-rule="evenodd" d="M17.7873 34.6165C15.7002 36.2614 7.268 35.9097 6.85209 34.9608C6.39744 34.0478 8.57063 32.7299 9.57964 32.2453C9.84256 32.1328 10.1055 32.0203 10.3684 31.9078C12.4527 33.6075 15.0415 34.7074 17.7873 34.6165Z" fill="#F8A800"/>
<path fill-rule="evenodd" clip-rule="evenodd" d="M17.3642 34.6188C15.3805 36.18 7.36748 35.847 6.9709 34.9453C6.53967 34.0752 8.60291 32.8252 9.56518 32.3659C9.81553 32.2581 10.0625 32.152 10.3129 32.0442C12.2943 33.6587 14.7541 34.7047 17.3642 34.6188Z" fill="#F8AA00"/>
<path fill-rule="evenodd" clip-rule="evenodd" d="M16.9413 34.6196C15.0594 36.1019 7.46625 35.7841 7.09166 34.9303C6.67987 34.1072 8.6375 32.9212 9.54871 32.4833C9.78572 32.3827 10.0227 32.2821 10.2572 32.1808C12.1356 33.7103 14.4687 34.7033 16.9413 34.6196Z" fill="#F8AC00"/>
<path fill-rule="evenodd" clip-rule="evenodd" d="M16.5131 34.6263C14.7348 36.0251 7.5581 35.726 7.20609 34.9175C6.81687 34.1399 8.66784 33.0199 9.52637 32.6082C9.75078 32.5123 9.97519 32.4163 10.197 32.3196C11.9719 33.7664 14.1769 34.7026 16.5131 34.6263Z" fill="#F9AE00"/>
<path fill-rule="evenodd" clip-rule="evenodd" d="M16.0918 34.628C14.4187 35.9464 7.65852 35.6653 7.32583 34.904C6.96003 34.1692 8.7019 33.1146 9.5137 32.7282C9.72296 32.6362 9.93401 32.5475 10.1425 32.458C11.8153 33.817 13.8905 34.7018 16.0918 34.628Z" fill="#F9B000"/>
<path fill-rule="evenodd" clip-rule="evenodd" d="M15.6666 34.6318C14.0968 35.8663 7.75576 35.603 7.44172 34.8914C7.10126 34.2027 8.73487 33.2112 9.49485 32.8487C9.69076 32.7639 9.89002 32.6774 10.0852 32.5952C11.6542 33.8717 13.6009 34.7002 15.6666 34.6318Z" fill="#F9B200"/>
<path fill-rule="evenodd" clip-rule="evenodd" d="M15.244 34.6311C13.7761 35.7869 7.85487 35.5396 7.56352 34.8734C7.24239 34.2318 8.76947 33.3065 9.47835 32.9653C9.66348 32.8885 9.84682 32.8084 10.0327 32.7291C11.4981 33.923 13.314 34.6943 15.244 34.6311Z" fill="#FAB400"/>
<path fill-rule="evenodd" clip-rule="evenodd" d="M14.819 34.6357C13.4539 35.7104 7.94914 35.4817 7.67961 34.8634C7.38185 34.2647 8.79975 33.4047 9.46186 33.0887C9.63183 33.0158 9.80179 32.943 9.97252 32.8675C11.3343 33.9787 13.0239 34.6966 14.819 34.6357Z" fill="#FAB500"/>
<path fill-rule="evenodd" clip-rule="evenodd" d="M14.3943 34.6381C13.135 35.6297 8.04687 35.4181 7.79676 34.8469C7.52175 34.2935 8.83319 33.4999 9.44347 33.2078C9.60087 33.1397 9.76086 33.0723 9.91826 33.0041C11.1778 34.0276 12.7382 34.6918 14.3943 34.6381Z" fill="#FBB800"/>
<path fill-rule="evenodd" clip-rule="evenodd" d="M13.9698 34.6393C12.8132 35.5497 8.1449 35.3543 7.9141 34.8304C7.66432 34.3231 8.86663 33.5949 9.42503 33.3266L9.86127 33.1394C11.0172 34.0803 12.4485 34.6905 13.9698 34.6393Z" fill="#FBB900"/>
<path fill-rule="evenodd" clip-rule="evenodd" d="M22.8794 34.6127C21.4815 35.7077 18.2831 36.234 15.0016 36.3663C14.6313 33.9541 12.2942 31.8885 9.2998 31.0421C9.46885 30.9522 9.62984 30.8729 9.77473 30.8041L11.0251 30.2725C14.363 32.9808 18.5005 34.7423 22.8794 34.6127Z" fill="#F39604" fill-opacity="0.5"/>
<path fill-rule="evenodd" clip-rule="evenodd" d="M22.8832 34.585C26.2122 37.2098 39.6629 36.6468 40.3234 35.1366C41.052 33.6761 37.5848 31.5763 35.9722 30.8033L34.7186 30.2674C31.3923 32.9747 27.263 34.7304 22.8832 34.585Z" fill="#F39100"/>
<path fill-rule="evenodd" clip-rule="evenodd" d="M23.3062 34.5869C26.5317 37.128 39.5641 36.5864 40.2045 35.1208C40.9105 33.7056 37.5532 31.6738 35.9891 30.9228C35.5829 30.7519 35.1785 30.5776 34.7741 30.4035C31.5514 33.028 27.5503 34.7272 23.3062 34.5869Z" fill="#F39300"/>
<path fill-rule="evenodd" clip-rule="evenodd" d="M23.7305 34.5913C26.8535 37.0509 39.466 36.5245 40.087 35.1061C40.7684 33.7395 37.5185 31.7683 36.0044 31.0445C35.6134 30.8775 35.2216 30.708 34.8272 30.5393C31.7083 33.0814 27.8364 34.7269 23.7305 34.5913Z" fill="#F49500"/>
<path fill-rule="evenodd" clip-rule="evenodd" d="M24.1566 34.5935C27.1768 36.9722 39.372 36.462 39.972 35.0941C40.63 33.7704 37.4868 31.8651 36.0247 31.165C35.6462 31.0027 35.2677 30.8404 34.8893 30.6781C31.8731 33.1348 28.1276 34.7269 24.1566 34.5935Z" fill="#F49700"/>
<path fill-rule="evenodd" clip-rule="evenodd" d="M24.5796 34.5944C27.4946 36.8926 39.2732 36.4001 39.8531 35.0768C40.4885 33.7984 37.4551 31.9612 36.0415 31.2831C35.6764 31.128 35.3105 30.9704 34.942 30.8136C32.0288 33.1851 28.4149 34.7225 24.5796 34.5944Z" fill="#F49900"/>
<path fill-rule="evenodd" clip-rule="evenodd" d="M25.0031 34.5982C27.8148 36.8124 39.1751 36.3402 39.7331 35.0648C40.3482 33.831 37.4205 32.0577 36.0561 31.4042C35.7061 31.2531 35.351 31.1035 34.9977 30.9506C32.1883 33.2398 28.7028 34.7209 25.0031 34.5982Z" fill="#F59B00"/>
<path fill-rule="evenodd" clip-rule="evenodd" d="M25.4271 34.6019C28.1361 36.7351 39.0766 36.2792 39.6144 35.0483C40.2069 33.8599 37.3858 32.1527 36.074 31.5256C35.7341 31.3799 35.3941 31.2343 35.0541 31.0886C32.3476 33.2925 28.9885 34.7204 25.4271 34.6019Z" fill="#F59D00"/>
<path fill-rule="evenodd" clip-rule="evenodd" d="M25.8491 34.6048C28.4552 36.6569 38.9785 36.2169 39.4952 35.0366C40.0626 33.8943 37.3525 32.2492 36.0901 31.6465C35.7627 31.5055 35.4353 31.3645 35.1087 31.226C32.5049 33.3446 29.2749 34.7183 25.8491 34.6048Z" fill="#F69F00"/>
<path fill-rule="evenodd" clip-rule="evenodd" d="M26.277 34.6076C28.7773 36.5765 38.8822 36.1569 39.3788 35.0211C39.9259 33.9234 37.323 32.3472 36.109 31.7667C35.7976 31.6321 35.4828 31.4958 35.1688 31.3621C32.6688 33.3982 29.5671 34.7157 26.277 34.6076Z" fill="#F6A000"/>
<path fill-rule="evenodd" clip-rule="evenodd" d="M26.6995 34.6085C29.0979 36.4988 38.7855 36.0946 39.2602 35.0068C39.7847 33.9545 37.2875 32.4419 36.1255 31.8852C35.8266 31.7553 35.5252 31.6262 35.2237 31.4971C32.8274 33.4506 29.8547 34.7141 26.6995 34.6085Z" fill="#F6A300"/>
<path fill-rule="evenodd" clip-rule="evenodd" d="M27.123 34.6113C29.418 36.4178 38.6865 36.032 39.1418 34.9913C39.6436 33.9843 37.253 32.5381 36.1428 32.0051C35.8547 31.8833 35.5658 31.7588 35.277 31.6344C32.9861 33.502 30.14 34.7124 27.123 34.6113Z" fill="#F7A400"/>
<path fill-rule="evenodd" clip-rule="evenodd" d="M27.5459 34.6141C29.7356 36.3402 38.5869 35.9702 39.0229 34.9767C39.4995 34.0158 37.2206 32.6342 36.1597 32.1257C35.8842 32.0085 35.6087 31.8914 35.335 31.7709C33.1444 33.5539 30.4273 34.7102 27.5459 34.6141Z" fill="#F7A700"/>
<path fill-rule="evenodd" clip-rule="evenodd" d="M27.9724 34.6179C30.0587 36.2602 38.4917 35.9109 38.9076 34.962C39.3614 34.0465 37.189 32.7312 36.18 32.2466C35.9171 32.1341 35.6541 32.0216 35.3912 31.9091C33.3061 33.6063 30.7181 34.7088 27.9724 34.6179Z" fill="#F8A800"/>
<path fill-rule="evenodd" clip-rule="evenodd" d="M28.3951 34.6182C30.3795 36.1819 38.3925 35.8489 38.7891 34.9472C39.2203 34.077 37.1571 32.8271 36.1941 32.3652C35.9471 32.2592 35.6967 32.1514 35.4471 32.0461C33.4657 33.6606 31.0059 34.7066 28.3951 34.6182Z" fill="#F8AA00"/>
<path fill-rule="evenodd" clip-rule="evenodd" d="M28.8196 34.6219C30.6981 36.1025 38.2947 35.7866 38.6693 34.9327C39.0811 34.1097 37.1234 32.9237 36.2122 32.4857C35.9752 32.3851 35.7408 32.2838 35.5038 32.1832C33.6253 33.7127 31.2922 34.7057 28.8196 34.6219Z" fill="#F8AC00"/>
<path fill-rule="evenodd" clip-rule="evenodd" d="M29.2454 34.6238C31.0212 36.0233 38.2005 35.7234 38.5533 34.9175C38.9425 34.1399 37.0915 33.0198 36.2322 32.6056C36.0085 32.5122 35.7841 32.4163 35.5623 32.3196C33.7866 33.7638 31.5824 34.7026 29.2454 34.6238Z" fill="#F9AE00"/>
<path fill-rule="evenodd" clip-rule="evenodd" d="M29.6682 34.6282C31.3413 35.9466 38.1007 35.6629 38.4342 34.9042C38.7999 34.1694 37.0581 33.1148 36.2463 32.7284C36.037 32.6364 35.826 32.5477 35.6167 32.4557C33.9447 33.8172 31.8687 34.6994 29.6682 34.6282Z" fill="#F9B000"/>
<path fill-rule="evenodd" clip-rule="evenodd" d="M30.0919 34.6294C31.6625 35.8664 38.0036 35.6031 38.3168 34.8889C38.6581 34.2027 37.0244 33.2113 36.2637 32.8462C36.0685 32.764 35.8693 32.6775 35.6734 32.5927C34.1051 33.8718 32.1576 34.6978 30.0919 34.6294Z" fill="#F9B200"/>
<path fill-rule="evenodd" clip-rule="evenodd" d="M30.5149 34.6332C31.9803 35.7897 37.904 35.5417 38.1954 34.8755C38.5165 34.2339 36.9894 33.3086 36.2805 32.9674C36.0972 32.8873 35.9121 32.8106 35.7262 32.7312C34.2608 33.9251 32.4449 34.6965 30.5149 34.6332Z" fill="#FAB400"/>
<path fill-rule="evenodd" clip-rule="evenodd" d="M30.9403 34.6341C32.3021 35.7071 37.8094 35.4776 38.0789 34.8593C38.3775 34.2632 36.9596 33.4032 36.2975 33.0872C36.1275 33.0143 35.9568 32.9389 35.7843 32.8667C34.4242 33.9745 32.7354 34.695 30.9403 34.6341Z" fill="#FAB500"/>
<path fill-rule="evenodd" clip-rule="evenodd" d="M31.3653 34.6389C32.6246 35.6304 37.7128 35.4187 37.9621 34.845C38.2379 34.2941 36.9264 33.5006 36.3161 33.2085C36.1587 33.1403 36.0013 33.0722 35.8413 33.0048C34.5818 34.0283 33.0214 34.6926 31.3653 34.6389Z" fill="#FBB800"/>
<path fill-rule="evenodd" clip-rule="evenodd" d="M31.7878 34.6417C32.9436 35.5496 37.6127 35.3567 37.8435 34.8327C38.0933 34.3254 36.891 33.5973 36.3326 33.329L35.8963 33.1418C34.7404 34.0827 33.3083 34.6903 31.7878 34.6417Z" fill="#FBB900"/>
<path fill-rule="evenodd" clip-rule="evenodd" d="M22.8799 34.6127C24.2778 35.7077 27.4735 36.234 30.7577 36.3663C31.128 33.9541 33.4651 31.8885 36.4595 31.0421C36.2905 30.9522 36.1295 30.8729 35.9846 30.8041L34.7315 30.2725C31.3963 32.9808 27.2589 34.7423 22.8799 34.6127Z" fill="#F39604" fill-opacity="0.5"/>
<path fill-rule="evenodd" clip-rule="evenodd" d="M7.66759e-05 27.4841C-0.00528971 29.108 0.265714 30.3723 2.49545 29.9623C15.5599 27.5687 23.8349 17.4547 23.0567 4.23828C9.72396 5.00001 0.0269086 14.4872 7.66759e-05 27.4841Z" fill="url(#paint0_linear_468_20350)"/>
<path fill-rule="evenodd" clip-rule="evenodd" d="M45.7644 27.4841C45.7698 29.108 45.4988 30.3723 43.269 29.9623C30.2046 27.5687 21.9296 17.4547 22.7077 4.23828C36.0405 5.00001 45.7376 14.4872 45.7644 27.4841Z" fill="url(#paint1_linear_468_20350)"/>
<path fill-rule="evenodd" clip-rule="evenodd" d="M22.8682 0C32.5518 0 40.4028 7.79447 40.4028 17.4112C40.4028 27.028 32.5518 34.8251 22.8682 34.8251C13.1872 34.8251 5.3362 27.028 5.3362 17.4112C5.3362 7.79447 13.1872 0 22.8682 0Z" fill="#21211F"/>
<path fill-rule="evenodd" clip-rule="evenodd" d="M22.8797 0.274414C32.4587 0.274414 40.2212 7.98689 40.2212 17.4979C40.2212 27.0115 32.4587 34.7213 22.8797 34.7213C13.3007 34.7213 5.53826 27.0115 5.53826 17.4979C5.53826 7.98689 13.3007 0.274414 22.8797 0.274414Z" fill="#222221"/>
<path fill-rule="evenodd" clip-rule="evenodd" d="M22.891 0.552734C32.3627 0.552734 40.042 8.17792 40.042 17.5857C40.042 26.9936 32.3627 34.6214 22.891 34.6214C13.4194 34.6214 5.7374 26.9936 5.7374 17.5857C5.7374 8.17792 13.4194 0.552734 22.891 0.552734Z" fill="#242322"/>
<path d="M22.8965 34.5176C13.5295 34.5176 5.93601 26.9757 5.93601 17.6724C5.93601 8.36901 13.5295 0.827148 22.8965 0.827148C32.2635 0.827148 39.8569 8.36901 39.8569 17.6724C39.8569 26.9757 32.2635 34.5176 22.8965 34.5176Z" fill="#252524" stroke="#242322" stroke-width="0.00383542" stroke-miterlimit="22.9256"/>
<path fill-rule="evenodd" clip-rule="evenodd" d="M22.9078 1.10156C32.1702 1.10156 39.6777 8.55745 39.6777 17.7563C39.6777 26.9552 32.1702 34.4111 22.9078 34.4111C13.6454 34.4111 6.13782 26.9552 6.13782 17.7563C6.13782 8.55745 13.6454 1.10156 22.9078 1.10156Z" fill="#262625"/>
<path fill-rule="evenodd" clip-rule="evenodd" d="M22.9157 1.37891C32.0707 1.37891 39.4951 8.75019 39.4951 17.8433C39.4951 26.939 32.0707 34.3102 22.9157 34.3102C13.7579 34.3102 6.33355 26.939 6.33355 17.8433C6.33355 8.75019 13.7579 1.37891 22.9157 1.37891Z" fill="#282826"/>
<path fill-rule="evenodd" clip-rule="evenodd" d="M22.9241 1.65137C31.9745 1.65137 39.313 8.94064 39.313 17.9306C39.313 26.9178 31.9745 34.2071 22.9241 34.2071C13.8737 34.2071 6.53513 26.9178 6.53513 17.9306C6.53513 8.94064 13.8737 1.65137 22.9241 1.65137Z" fill="#292928"/>
<path fill-rule="evenodd" clip-rule="evenodd" d="M22.9324 1.92871C31.8782 1.92871 39.1309 9.13337 39.1309 18.0175C39.1309 26.9016 31.8782 34.1062 22.9324 34.1062C13.9867 34.1062 6.734 26.9016 6.734 18.0175C6.734 9.13337 13.9867 1.92871 22.9324 1.92871Z" fill="#2C2C2B"/>
<path fill-rule="evenodd" clip-rule="evenodd" d="M22.9437 2.20312C31.7849 2.20312 38.9517 9.32315 38.9517 18.1041C38.9517 26.8825 31.7849 34.0024 22.9437 34.0024C14.1026 34.0024 6.93581 26.8825 6.93581 18.1041C6.93581 9.32315 14.1026 2.20312 22.9437 2.20312Z" fill="#2D2D2C"/>
<path fill-rule="evenodd" clip-rule="evenodd" d="M22.9487 2.48047C31.6852 2.48047 38.7661 9.5132 38.7661 18.191C38.7661 26.8662 31.6852 33.8989 22.9487 33.8989C14.2149 33.8989 7.13129 26.8662 7.13129 18.191C7.13129 9.5132 14.2149 2.48047 22.9487 2.48047Z" fill="#2F2E2D"/>
<path fill-rule="evenodd" clip-rule="evenodd" d="M22.9605 2.75586C31.5923 2.75586 38.5874 9.70393 38.5874 18.276C38.5874 26.848 31.5923 33.7961 22.9605 33.7961C14.3314 33.7961 7.33359 26.848 7.33359 18.276C7.33359 9.70393 14.3314 2.75586 22.9605 2.75586Z" fill="#30302F"/>
<path fill-rule="evenodd" clip-rule="evenodd" d="M22.9715 3.03027C31.496 3.03027 38.4053 9.89371 38.4053 18.3626C38.4053 26.8288 31.496 33.6923 22.9715 33.6923C14.4444 33.6923 7.53514 26.8288 7.53514 18.3626C7.53514 9.89371 14.4444 3.03027 22.9715 3.03027Z" fill="#313130"/>
<path fill-rule="evenodd" clip-rule="evenodd" d="M22.9768 3.30762C31.3966 3.30762 38.2227 10.0864 38.2227 18.4495C38.2227 26.81 31.3966 33.5914 22.9768 33.5914C14.5569 33.5914 7.73355 26.81 7.73355 18.4495C7.73355 10.0864 14.5569 3.30762 22.9768 3.30762Z" fill="#323231"/>
<path fill-rule="evenodd" clip-rule="evenodd" d="M22.9881 3.58203C31.3006 3.58203 38.0435 10.2762 38.0435 18.5335C38.0435 26.7908 31.3006 33.485 22.9881 33.485C14.6729 33.485 7.93267 26.7908 7.93267 18.5335C7.93267 10.2762 14.6729 3.58203 22.9881 3.58203Z" fill="#333332"/>
<path fill-rule="evenodd" clip-rule="evenodd" d="M22.9962 3.86035C31.2041 3.86035 37.8584 10.4672 37.8584 18.6214C37.8584 26.7755 31.2041 33.3851 22.9962 33.3851C14.7856 33.3851 8.13131 26.7755 8.13131 18.6214C8.13131 10.4672 14.7856 3.86035 22.9962 3.86035Z" fill="#353433"/>
<path fill-rule="evenodd" clip-rule="evenodd" d="M23.0048 4.13477C31.1081 4.13477 37.6792 10.6597 37.6792 18.708C37.6792 26.7564 31.1081 33.2813 23.0048 33.2813C14.9016 33.2813 8.33313 26.7564 8.33313 18.708C8.33313 10.6597 14.9016 4.13477 23.0048 4.13477Z" fill="#363635"/>
<path fill-rule="evenodd" clip-rule="evenodd" d="M23.013 4.40918C31.0116 4.40918 37.4941 10.8495 37.4941 18.792C37.4941 26.7372 31.0116 33.1775 23.013 33.1775C15.0144 33.1775 8.52909 26.7372 8.52909 18.792C8.52909 10.8495 15.0144 4.40918 23.013 4.40918Z" fill="#373736"/>
<path fill-rule="evenodd" clip-rule="evenodd" d="M23.0243 4.68652C30.9155 4.68652 37.3149 11.0395 37.3149 18.8816C37.3149 26.7183 30.9155 33.074 23.0243 33.074C15.1303 33.074 8.73091 26.7183 8.73091 18.8816C8.73091 11.0395 15.1303 4.68652 23.0243 4.68652Z" fill="#383837"/>
<path fill-rule="evenodd" clip-rule="evenodd" d="M23.0324 4.96094C30.8217 4.96094 37.1353 11.2293 37.1353 18.9655C37.1353 26.6991 30.8217 32.9701 23.0324 32.9701C15.2458 32.9701 8.93222 26.6991 8.93222 18.9655C8.93222 11.2293 15.2458 4.96094 23.0324 4.96094Z" fill="#393938"/>
<path fill-rule="evenodd" clip-rule="evenodd" d="M23.041 5.23926C30.723 5.23926 36.9507 11.423 36.9507 19.0535C36.9507 26.6839 30.723 32.8703 23.041 32.8703C15.359 32.8703 9.13136 26.6839 9.13136 19.0535C9.13136 11.423 15.359 5.23926 23.041 5.23926Z" fill="#3A3A39"/>
<path fill-rule="evenodd" clip-rule="evenodd" d="M23.0489 5.51074C30.6262 5.51074 36.7681 11.6125 36.7681 19.1372C36.7681 26.6645 30.6262 32.7662 23.0489 32.7662C15.4716 32.7662 9.32706 26.6645 9.32706 19.1372C9.32706 11.6125 15.4716 5.51074 23.0489 5.51074Z" fill="#3D3C3B"/>
<path fill-rule="evenodd" clip-rule="evenodd" d="M23.0575 5.79102C30.5302 5.79102 36.5889 11.8055 36.5889 19.227C36.5889 26.6485 30.5302 32.6629 23.0575 32.6629C15.5875 32.6629 9.52887 26.6485 9.52887 19.227C9.52887 11.8055 15.5875 5.79102 23.0575 5.79102Z" fill="#3E3E3D"/>
<path fill-rule="evenodd" clip-rule="evenodd" d="M23.0686 6.06348C30.4366 6.06348 36.4067 11.9959 36.4067 19.3117C36.4067 26.63 30.4366 32.5598 23.0686 32.5598C15.7032 32.5598 9.73045 26.63 9.73045 19.3117C9.73045 11.9959 15.7032 6.06348 23.0686 6.06348Z" fill="#3F3F3E"/>
<path fill-rule="evenodd" clip-rule="evenodd" d="M23.0738 6.33789C30.3372 6.33789 36.2241 12.1857 36.2241 19.3983C36.2241 26.6082 30.3372 32.456 23.0738 32.456C15.8131 32.456 9.92616 26.6082 9.92616 19.3983C9.92616 12.1857 15.8131 6.33789 23.0738 6.33789Z" fill="#40403F"/>
<path fill-rule="evenodd" clip-rule="evenodd" d="M23.0854 6.61523C30.2414 6.61523 36.0425 12.3784 36.0425 19.4852C36.0425 26.592 30.2414 32.3551 23.0854 32.3551C15.9293 32.3551 10.1282 26.592 10.1282 19.4852C10.1282 12.3784 15.9293 6.61523 23.0854 6.61523Z" fill="#414140"/>
<path fill-rule="evenodd" clip-rule="evenodd" d="M23.0932 6.88965C30.1447 6.88965 35.8599 12.5682 35.8599 19.5692C35.8599 26.5728 30.1447 32.2487 23.0932 32.2487C16.0418 32.2487 10.3266 26.5728 10.3266 19.5692C10.3266 12.5682 16.0418 6.88965 23.0932 6.88965Z" fill="#424241"/>
<path fill-rule="evenodd" clip-rule="evenodd" d="M23.1045 7.16406C30.0486 7.16406 35.6807 12.7579 35.6807 19.6558C35.6807 26.5536 30.0486 32.1449 23.1045 32.1449C16.1578 32.1449 10.5284 26.5536 10.5284 19.6558C10.5284 12.7579 16.1578 7.16406 23.1045 7.16406Z" fill="#434342"/>
<path fill-rule="evenodd" clip-rule="evenodd" d="M23.1127 7.44238C29.9521 7.44238 35.4956 12.949 35.4956 19.7437C35.4956 26.5384 29.9521 32.045 23.1127 32.045C16.2705 32.045 10.7244 26.5384 10.7244 19.7437C10.7244 12.949 16.2705 7.44238 23.1127 7.44238Z" fill="#444443"/>
<path fill-rule="evenodd" clip-rule="evenodd" d="M23.1213 7.71973C29.8561 7.71973 35.3164 13.1417 35.3164 19.8306C35.3164 26.5195 29.8561 31.9441 23.1213 31.9441C16.3865 31.9441 10.9262 26.5195 10.9262 19.8306C10.9262 13.1417 16.3865 7.71973 23.1213 7.71973Z" fill="#464544"/>
<path fill-rule="evenodd" clip-rule="evenodd" d="M23.1326 7.99414C29.7628 7.99414 35.1372 13.3315 35.1372 19.9172C35.1372 26.5003 29.7628 31.8403 23.1326 31.8403C16.5024 31.8403 11.128 26.5003 11.128 19.9172C11.128 13.3315 16.5024 7.99414 23.1326 7.99414Z" fill="#474646"/>
<path fill-rule="evenodd" clip-rule="evenodd" d="M23.1407 8.26855C29.6636 8.26855 34.9521 13.5213 34.9521 20.0012C34.9521 26.4812 29.6636 31.7339 23.1407 31.7339C16.6152 31.7339 11.324 26.4812 11.324 20.0012C11.324 13.5213 16.6152 8.26855 23.1407 8.26855Z" fill="#484747"/>
<path fill-rule="evenodd" clip-rule="evenodd" d="M23.1494 8.54688C29.5676 8.54688 34.7729 13.715 34.7729 20.0891C34.7729 26.4659 29.5676 31.634 23.1494 31.634C16.7312 31.634 11.5258 26.4659 11.5258 20.0891C11.5258 13.715 16.7312 8.54688 23.1494 8.54688Z" fill="#494948"/>
<path fill-rule="evenodd" clip-rule="evenodd" d="M23.1572 8.82129C29.4708 8.82129 34.5903 13.9047 34.5903 20.1757C34.5903 26.4467 29.4708 31.5302 23.1572 31.5302C16.8437 31.5302 11.7242 26.4467 11.7242 20.1757C11.7242 13.9047 16.8437 8.82129 23.1572 8.82129Z" fill="#4B4B4A"/>
<path fill-rule="evenodd" clip-rule="evenodd" d="M23.1656 9.0957C29.3745 9.0957 34.4082 14.0945 34.4082 20.2597C34.4082 26.4276 29.3745 31.4264 23.1656 31.4264C16.9594 31.4264 11.9257 26.4276 11.9257 20.2597C11.9257 14.0945 16.9594 9.0957 23.1656 9.0957Z" fill="#4C4C4B"/>
<path fill-rule="evenodd" clip-rule="evenodd" d="M23.174 9.37305C29.2756 9.37305 34.2261 14.2872 34.2261 20.3466C34.2261 26.4087 29.2756 31.3228 23.174 31.3228C17.0697 31.3228 12.122 26.4087 12.122 20.3466C12.122 14.2872 17.0697 9.37305 23.174 9.37305Z" fill="#4D4D4C"/>
<path fill-rule="evenodd" clip-rule="evenodd" d="M23.1851 9.64844C29.182 9.64844 34.0439 14.4753 34.0439 20.4342C34.0439 26.3905 29.182 31.22 23.1851 31.22C17.1854 31.22 12.3235 26.3905 12.3235 20.4342C12.3235 14.4753 17.1854 9.64844 23.1851 9.64844Z" fill="#4E4E4D"/>
<path fill-rule="evenodd" clip-rule="evenodd" d="M23.1903 9.92578C29.0826 9.92578 33.8613 14.668 33.8613 20.5211C33.8613 26.3742 29.0826 31.1192 23.1903 31.1192C17.298 31.1192 12.5219 26.3742 12.5219 20.5211C12.5219 14.668 17.298 9.92578 23.1903 9.92578Z" fill="#4F4F4E"/>
<path fill-rule="evenodd" clip-rule="evenodd" d="M23.2016 10.1973C28.9892 10.1973 33.6821 14.8575 33.6821 20.6048C33.6821 26.3548 28.9892 31.0151 23.2016 31.0151C17.4139 31.0151 12.721 26.3548 12.721 20.6048C12.721 14.8575 17.4139 10.1973 23.2016 10.1973Z" fill="#50504F"/>
<path fill-rule="evenodd" clip-rule="evenodd" d="M23.2097 10.4756C28.8927 10.4756 33.4971 15.0512 33.4971 20.6954C33.4971 26.3395 28.8927 30.9125 23.2097 30.9125C17.5267 30.9125 12.9197 26.3395 12.9197 20.6954C12.9197 15.0512 17.5267 10.4756 23.2097 10.4756Z" fill="#515150"/>
<path fill-rule="evenodd" clip-rule="evenodd" d="M23.221 10.75C28.7967 10.75 33.3179 15.241 33.3179 20.7794C33.3179 26.3178 28.7967 30.8087 23.221 30.8087C17.6427 30.8087 13.1215 26.3178 13.1215 20.7794C13.1215 15.241 17.6427 10.75 23.221 10.75Z" fill="#525251"/>
<path fill-rule="evenodd" clip-rule="evenodd" d="M23.2262 11.0244C28.6973 11.0244 33.1353 15.4308 33.1353 20.866C33.1353 26.2985 28.6973 30.7049 23.2262 30.7049C17.7552 30.7049 13.3199 26.2985 13.3199 20.866C13.3199 15.4308 17.7552 11.0244 23.2262 11.0244Z" fill="#535352"/>
<path fill-rule="evenodd" clip-rule="evenodd" d="M23.2378 11.3018C28.6042 11.3018 32.9536 15.6235 32.9536 20.9529C32.9536 26.2823 28.6042 30.6041 23.2378 30.6041C17.8714 30.6041 13.5193 26.2823 13.5193 20.9529C13.5193 15.6235 17.8714 11.3018 23.2378 11.3018Z" fill="#545453"/>
<path fill-rule="evenodd" clip-rule="evenodd" d="M23.2491 11.5771C28.5081 11.5771 32.7744 15.8142 32.7744 21.0379C32.7744 26.2641 28.5081 30.4986 23.2491 30.4986C17.9873 30.4986 13.7211 26.2641 13.7211 21.0379C13.7211 15.8142 17.9873 11.5771 23.2491 11.5771Z" fill="#555554"/>
<path fill-rule="evenodd" clip-rule="evenodd" d="M23.254 11.8545C28.4085 11.8545 32.5889 16.0069 32.5889 21.1248C32.5889 26.2479 28.4085 30.3977 23.254 30.3977C18.0969 30.3977 13.9192 26.2479 13.9192 21.1248C13.9192 16.0069 18.0969 11.8545 23.254 11.8545Z" fill="#565655"/>
<path fill-rule="evenodd" clip-rule="evenodd" d="M23.2632 12.1289C28.3156 12.1289 32.4102 16.1967 32.4102 21.2114C32.4102 26.2287 28.3156 30.2939 23.2632 30.2939C18.2134 30.2939 14.1188 26.2287 14.1188 21.2114C14.1188 16.1967 18.2134 12.1289 23.2632 12.1289Z" fill="#575756"/>
<path fill-rule="evenodd" clip-rule="evenodd" d="M23.271 12.4062C28.2188 12.4062 32.2275 16.3868 32.2275 21.2983C32.2275 26.2099 28.2188 30.1931 23.271 30.1931C18.3259 30.1931 14.3172 26.2099 14.3172 21.2983C14.3172 16.3868 18.3259 12.4062 23.271 12.4062Z" fill="#595958"/>
<path fill-rule="evenodd" clip-rule="evenodd" d="M23.2821 12.6816C28.1226 12.6816 32.0454 16.5775 32.0454 21.3859C32.0454 26.1917 28.1226 30.0876 23.2821 30.0876C18.4416 30.0876 14.5188 26.1917 14.5188 21.3859C14.5188 16.5775 18.4416 12.6816 23.2821 12.6816Z" fill="#5A5A59"/>
<path fill-rule="evenodd" clip-rule="evenodd" d="M23.2905 12.9561C28.0236 12.9561 31.8633 16.7673 31.8633 21.4699C31.8633 26.1725 28.0236 29.9838 23.2905 29.9838C18.5547 29.9838 14.7177 26.1725 14.7177 21.4699C14.7177 16.7673 18.5547 12.9561 23.2905 12.9561Z" fill="#5B5B5A"/>
<path fill-rule="evenodd" clip-rule="evenodd" d="M23.2989 13.2334C27.9301 13.2334 31.6812 16.96 31.6812 21.5568C31.6812 26.1563 27.9301 29.8829 23.2989 29.8829C18.6704 29.8829 14.9166 26.1563 14.9166 21.5568C14.9166 16.96 18.6704 13.2334 23.2989 13.2334Z" fill="#5C5C5B"/>
<path fill-rule="evenodd" clip-rule="evenodd" d="M23.3102 13.5078C27.834 13.5078 31.502 17.1498 31.502 21.6435C31.502 26.1371 27.834 29.7791 23.3102 29.7791C18.7863 29.7791 15.1184 26.1371 15.1184 21.6435C15.1184 17.1498 18.7863 13.5078 23.3102 13.5078Z" fill="#5D5D5C"/>
<path fill-rule="evenodd" clip-rule="evenodd" d="M23.3181 13.7852C27.7373 13.7852 31.3193 17.3425 31.3193 21.7304C31.3193 26.1182 27.7373 29.6755 23.3181 29.6755C18.8988 29.6755 15.3168 26.1182 15.3168 21.7304C15.3168 17.3425 18.8988 13.7852 23.3181 13.7852Z" fill="#5E5E5D"/>
<path fill-rule="evenodd" clip-rule="evenodd" d="M23.3269 14.0576C27.6415 14.0576 31.1377 17.5303 31.1377 21.815C31.1377 26.0997 27.6415 29.5725 23.3269 29.5725C19.015 29.5725 15.5188 26.0997 15.5188 21.815C15.5188 17.5303 19.015 14.0576 23.3269 14.0576Z" fill="#5F5F5E"/>
<path d="M34.1152 9.89327C34.1152 13.7257 30.9625 16.8281 27.0772 16.8281C23.192 16.8281 20.0392 13.7257 20.0392 9.89327C20.0392 6.06085 23.192 2.95312 27.0772 2.95312C30.9625 2.95312 34.1152 6.06085 34.1152 9.89327Z" fill="white"/>
<path d="M25.4175 9.89425C25.4175 13.7267 22.2647 16.8291 18.3795 16.8291C14.4942 16.8291 11.3388 13.7267 11.3388 9.89425C11.3388 6.06182 14.4942 2.95674 18.3795 2.95674C22.2647 2.95674 25.4175 6.06182 25.4175 9.89425Z" fill="white"/>
<path fill-rule="evenodd" clip-rule="evenodd" d="M32.9894 31.8867C32.2601 32.8304 30.5733 33.0498 28.1573 34.2128C26.4705 34.4322 24.7838 34.6515 23.097 34.8708C18.7662 34.5851 15.1647 33.3557 12.2925 31.1826C12.0645 29.5145 10.9931 27.9561 11.6084 26.1783C11.5397 19.3963 16.6451 12.7902 22.6627 12.8566C28.6803 12.923 34.7667 19.7714 34.8354 26.5534C34.2201 28.3312 34.4481 29.9993 32.9894 31.8867Z" fill="url(#paint2_radial_468_20350)"/>
<path d="M21.3418 9.88393C21.3418 11.3968 20.0968 12.624 18.562 12.624C17.0246 12.624 15.7795 11.3968 15.7795 9.88393C15.7795 8.36842 17.0246 7.1412 18.562 7.1412C20.0968 7.1412 21.3418 8.36842 21.3418 9.88393Z" fill="#1A1A18"/>
<path d="M29.4521 9.88392C29.4521 11.3968 28.2072 12.624 26.667 12.624C25.1322 12.624 23.8845 11.3968 23.8845 9.88392C23.8845 8.36841 25.1322 7.1412 26.667 7.1412C28.2072 7.1412 29.4521 8.36841 29.4521 9.88392Z" fill="#1A1A18"/>
<path d="M18.1116 8.01172C18.1116 8.01172 16.9552 8.22068 16.77 9.23367C17.1403 9.48757 17.3711 9.48755 17.3711 9.48755C17.3711 9.48755 17.2798 8.68616 18.1116 8.01172Z" fill="white"/>
<path d="M18.1662 11.8401C18.3731 12.2313 19.0593 12.2832 19.699 11.9561C20.3386 11.629 20.6894 11.0467 20.4825 10.6555C20.2756 10.2644 19.5894 10.2124 18.9497 10.5396C18.3101 10.8667 17.9593 11.449 18.1662 11.8401Z" fill="url(#paint3_radial_468_20350)"/>
<path d="M26.2146 8.01172C26.2146 8.01172 25.0582 8.22068 24.873 9.23367C25.2433 9.48757 25.4741 9.48755 25.4741 9.48755C25.4741 9.48755 25.3829 8.68616 26.2146 8.01172Z" fill="white"/>
<path d="M26.2667 11.8358C26.4748 12.2289 27.1616 12.2822 27.8008 11.9551C28.4399 11.6279 28.7894 11.0441 28.5813 10.6511C28.3733 10.258 27.6864 10.2047 27.0473 10.5318C26.4081 10.859 26.0586 11.4428 26.2667 11.8358Z" fill="url(#paint4_radial_468_20350)"/>
<path d="M19.6603 11.5891L18.8823 11.5957L18.8757 10.8286L19.6537 10.8221L19.6603 11.5891Z" fill="white" fill-opacity="0.98"/>
<path d="M27.8947 11.6007L27.1167 11.6064L27.1108 10.8394L27.8888 10.8336L27.8947 11.6007Z" fill="white" fill-opacity="0.98"/>
<path d="M26.9895 14.3369C27.5462 14.653 27.5449 15.1615 26.9901 15.4766C21.9905 18.2897 23.2996 18.2917 18.2886 15.4611C17.7346 15.1448 17.7329 14.634 18.2881 14.3215C23.2463 12.1799 21.9384 12.1269 26.9895 14.3369Z" fill="#F39100"/>
<path fill-rule="evenodd" clip-rule="evenodd" d="M26.8849 14.357C27.4269 14.6643 27.4268 15.1619 26.8868 15.4671C22.0105 18.2131 23.2844 18.2145 18.3966 15.4533C17.8573 15.1457 17.8547 14.6484 18.3947 14.3432C23.2358 12.2546 21.9574 12.2003 26.8849 14.357Z" fill="#F39300"/>
<path fill-rule="evenodd" clip-rule="evenodd" d="M26.7805 14.377C27.3108 14.6777 27.3116 15.1619 26.7816 15.4605C22.0286 18.1374 23.2729 18.1398 18.5076 15.4461C17.98 15.145 17.9792 14.6609 18.5065 14.3626C23.2222 12.3273 21.9795 12.2765 26.7805 14.377Z" fill="#F49500"/>
<path fill-rule="evenodd" clip-rule="evenodd" d="M26.6806 14.3991C27.1962 14.691 27.1978 15.1616 26.683 15.4529C22.0503 18.0605 23.2646 18.0615 18.6201 15.4401C18.1069 15.1452 18.1053 14.6746 18.6174 14.3837C23.2156 12.3986 22.0032 12.3519 26.6806 14.3991Z" fill="#F49700"/>
<path fill-rule="evenodd" clip-rule="evenodd" d="M26.5771 14.4187C27.0783 14.7044 27.0786 15.1646 26.5786 15.4459C22.0692 17.9844 23.2486 17.9872 18.7294 15.433C18.2282 15.1472 18.2279 14.6871 18.7278 14.4058C23.2033 12.4736 22.0205 12.4258 26.5771 14.4187Z" fill="#F49900"/>
<path fill-rule="evenodd" clip-rule="evenodd" d="M26.4734 14.4386C26.9625 14.7152 26.964 15.1645 26.4766 15.4388C22.0902 17.9077 23.2396 17.9091 18.8409 15.4247C18.3544 15.1477 18.3533 14.7011 18.8407 14.4268C23.1936 12.5481 22.0434 12.5014 26.4734 14.4386Z" fill="#F59B00"/>
<path fill-rule="evenodd" clip-rule="evenodd" d="M26.3712 14.4594C26.8486 14.7295 26.8483 15.1656 26.3735 15.433C22.1102 17.8325 23.227 17.8326 18.9512 15.418C18.4795 15.1499 18.4771 14.7141 18.9493 14.4471C23.1823 12.6214 22.0674 12.5754 26.3712 14.4594Z" fill="#F59D00"/>
<path fill-rule="evenodd" clip-rule="evenodd" d="M26.2679 14.4814C26.728 14.743 26.7312 15.1653 26.269 15.4257C22.1287 17.7558 23.2133 17.7575 19.0605 15.4125C18.6005 15.1509 18.5999 14.7283 19.0595 14.4682C23.1696 12.6931 22.085 12.6514 26.2679 14.4814Z" fill="#F69F00"/>
<path fill-rule="evenodd" clip-rule="evenodd" d="M26.1647 14.4992C26.613 14.7543 26.6145 15.1635 26.1675 15.4165C22.148 17.6803 23.2 17.6808 19.1699 15.403C18.7246 15.1502 18.7232 14.7411 19.1701 14.488C23.1577 12.7662 22.1053 12.7229 26.1647 14.4992Z" fill="#F6A000"/>
<path fill-rule="evenodd" clip-rule="evenodd" d="M26.0658 14.5213C26.4995 14.7676 26.5021 15.1659 26.0673 15.4094C22.1708 17.6034 23.1905 17.6055 19.2836 15.3972C18.8527 15.1505 18.8531 14.7545 19.2822 14.5091C23.1499 12.8405 22.1305 12.8009 26.0658 14.5213Z" fill="#F6A300"/>
<path fill-rule="evenodd" clip-rule="evenodd" d="M25.9643 14.5419C26.3833 14.7793 26.3842 15.1645 25.965 15.4033C22.1892 17.5288 23.179 17.5292 19.3949 15.3911C18.9759 15.1537 18.9747 14.7659 19.3942 14.5297C23.1391 12.9139 22.152 12.873 25.9643 14.5419Z" fill="#F7A400"/>
<path fill-rule="evenodd" clip-rule="evenodd" d="M25.8624 14.563C26.267 14.7943 26.2687 15.166 25.8644 15.3948C22.2114 17.4504 23.1663 17.4529 19.5055 15.384C19.1009 15.1527 19.0992 14.7811 19.5062 14.5519C23.1284 12.9871 22.1738 12.9472 25.8624 14.563Z" fill="#F7A700"/>
<path fill-rule="evenodd" clip-rule="evenodd" d="M25.7572 14.5819C26.1501 14.8066 26.1501 15.1651 25.7584 15.387C22.2292 17.3764 23.1541 17.3772 19.6157 15.376C19.2231 15.1538 19.2228 14.7927 19.6145 14.5708C23.1169 13.0611 22.1923 13.0228 25.7572 14.5819Z" fill="#F8A800"/>
<path fill-rule="evenodd" clip-rule="evenodd" d="M25.6563 14.6027C26.0371 14.8184 26.0383 15.166 25.6592 15.3809C22.2524 17.2978 23.1448 17.2976 19.7273 15.3686C19.3495 15.1552 19.3483 14.8076 19.7275 14.5927C23.1072 13.1341 22.2151 13.0969 25.6563 14.6027Z" fill="#F8AA00"/>
<path fill-rule="evenodd" clip-rule="evenodd" d="M25.5518 14.6238C25.9179 14.8306 25.9173 15.1651 25.5534 15.3727C22.2698 17.2204 23.1299 17.2216 19.838 15.3622C19.4719 15.1554 19.4721 14.8182 19.8364 14.6133C23.0934 13.2078 22.234 13.1717 25.5518 14.6238Z" fill="#F8AC00"/>
<path fill-rule="evenodd" clip-rule="evenodd" d="M25.4499 14.6434C25.8017 14.8441 25.8023 15.1677 25.4506 15.3657C22.2878 17.1468 23.1179 17.1466 19.9461 15.3545C19.5947 15.1564 19.5941 14.8328 19.9458 14.6349C23.0826 13.2798 22.2562 13.2474 25.4499 14.6434Z" fill="#F9AE00"/>
<path fill-rule="evenodd" clip-rule="evenodd" d="M25.3489 14.6631C25.6863 14.8576 25.6878 15.1678 25.3487 15.3588C22.3087 17.0681 23.1066 17.0693 20.0577 15.3471C19.721 15.1578 19.7218 14.8447 20.0583 14.6541C23.0755 13.3544 22.2786 13.321 25.3489 14.6631Z" fill="#F9B000"/>
<path fill-rule="evenodd" clip-rule="evenodd" d="M25.2455 14.6857C25.5705 14.8685 25.5702 15.1655 25.2463 15.3491C22.3295 16.9912 23.0921 16.9918 20.1695 15.3412C19.8442 15.1558 19.8445 14.8588 20.1684 14.6752C23.0628 13.4265 22.2989 13.3968 25.2455 14.6857Z" fill="#F9B200"/>
<path fill-rule="evenodd" clip-rule="evenodd" d="M25.1428 14.7046C25.4534 14.8811 25.4544 15.1673 25.1454 15.341C22.3493 16.9145 23.0824 16.9161 20.2795 15.3335C19.9688 15.1569 19.9705 14.8704 20.2795 14.6967C23.0511 13.5008 22.3222 13.4694 25.1428 14.7046Z" fill="#FAB400"/>
<path fill-rule="evenodd" clip-rule="evenodd" d="M25.0394 14.7276C25.3379 14.8951 25.3371 15.1681 25.0406 15.3348C22.3678 16.8412 23.0682 16.8416 20.3913 15.328C20.0924 15.1579 20.0932 14.8849 20.3897 14.7182C23.0412 13.5731 22.3425 13.5456 25.0394 14.7276Z" fill="#FAB500"/>
<path fill-rule="evenodd" clip-rule="evenodd" d="M24.9391 14.7474C25.2233 14.9087 25.2234 15.1682 24.9395 15.328C22.3897 16.7627 23.0579 16.7646 20.5011 15.3215C20.2195 15.1599 20.2164 14.8981 20.5002 14.7383C23.0294 13.6487 22.3629 13.6198 24.9391 14.7474Z" fill="#FBB800"/>
<path d="M24.8357 14.7671C25.1051 14.9195 25.1065 15.1682 24.8351 15.3209C22.4082 16.6861 23.0438 16.6869 20.6102 15.3132C20.3433 15.1604 20.342 14.9118 20.6107 14.7593C23.0197 13.7202 22.3835 13.6954 24.8357 14.7671Z" fill="#FBB900"/>
<path d="M26.298 15.3301L23.003 16.0628L19.7081 15.6132L18.3745 15.0498L21.8707 17.0176C22.292 17.253 23.0594 17.253 23.4779 17.0176L26.8078 15.1053L26.298 15.3301Z" fill="url(#paint5_linear_468_20350)"/>
<path d="M22.6385 15.6736C21.1091 15.6736 19.6602 15.4409 18.3615 15.0283C19.577 15.7848 21.0501 16.2264 22.6385 16.2264C24.2243 16.2264 25.6974 15.7848 26.9155 15.0283C25.6169 15.4409 24.1679 15.6736 22.6385 15.6736Z" fill="#DA5C0E"/>
<path fill-rule="evenodd" clip-rule="evenodd" d="M41.1572 14.4385C41.2914 16.3296 41.2807 18.1836 40.897 19.9478C43.1052 22.2144 44.5086 24.9995 44.8654 28.4616C45.9333 23.3834 43.9531 18.8395 41.1572 14.4385Z" fill="url(#paint6_linear_468_20350)"/>
<path fill-rule="evenodd" clip-rule="evenodd" d="M4.86218 14.6885C4.72533 16.5796 4.73875 18.4336 5.11976 20.1978C2.9115 22.4644 1.51087 25.2495 1.15132 28.7116C0.0860939 23.6308 2.06361 19.0895 4.86218 14.6885Z" fill="url(#paint7_linear_468_20350)"/>
<path d="M199.524 29.6395C197.324 29.6395 196.342 27.4151 196.342 24.7914C196.342 22.1677 197.324 19.9407 199.524 19.9407C201.88 19.9407 202.706 22.1677 202.706 24.7914C202.706 27.4151 201.826 29.6395 199.524 29.6395ZM207.453 11.1306C208.049 11.1306 208.631 11.2814 209.197 11.5802C209.766 11.8844 210.209 12.3155 210.525 12.8763C210.842 13.437 211 14.0214 211 14.6324C211 15.2354 210.845 15.8147 210.531 16.3701C210.219 16.9282 209.782 17.3593 209.219 17.6661C208.655 17.9755 208.067 18.129 207.453 18.129C206.836 18.129 206.248 17.9755 205.685 17.6661C205.121 17.3593 204.684 16.9282 204.37 16.3701C204.056 15.8147 203.9 15.2354 203.9 14.6324C203.9 14.0214 204.059 13.437 204.375 12.8763C204.695 12.3155 205.137 11.8844 205.706 11.5802C206.272 11.2814 206.857 11.1306 207.453 11.1306ZM207.453 11.7098C206.954 11.7098 206.468 11.8368 205.996 12.0881C205.524 12.3393 205.153 12.7017 204.888 13.1672C204.619 13.6353 204.488 14.1246 204.488 14.6324C204.488 15.1349 204.62 15.619 204.88 16.0818C205.143 16.542 205.51 16.9044 205.98 17.1609C206.449 17.4201 206.94 17.5497 207.453 17.5497C207.963 17.5497 208.454 17.4201 208.926 17.1609C209.396 16.9044 209.76 16.542 210.021 16.0818C210.281 15.619 210.41 15.1349 210.41 14.6324C210.41 14.1246 210.278 13.6353 210.015 13.1672C209.75 12.7017 209.379 12.3393 208.907 12.0881C208.432 11.8368 207.947 11.7098 207.453 11.7098ZM205.894 16.5658V12.7995H207.206C207.657 12.7995 207.982 12.8339 208.183 12.9027C208.381 12.9715 208.542 13.0931 208.663 13.2677C208.781 13.4422 208.84 13.6247 208.84 13.8205C208.84 14.0955 208.741 14.3336 208.542 14.5399C208.341 14.7435 208.078 14.8573 207.748 14.8811C207.882 14.9366 207.992 15.0027 208.073 15.0821C208.226 15.2302 208.414 15.4788 208.639 15.8279L209.103 16.5658H208.349L208.011 15.9707C207.745 15.5053 207.531 15.2116 207.367 15.0953C207.254 15.008 207.091 14.9657 206.873 14.9657H206.511V16.5658H205.894ZM206.511 14.4473H207.26C207.617 14.4473 207.861 14.3918 207.99 14.2886C208.121 14.1828 208.185 14.0453 208.185 13.8707C208.185 13.7596 208.153 13.6591 208.092 13.5719C208.03 13.4846 207.941 13.4184 207.831 13.3735C207.719 13.3311 207.512 13.31 207.211 13.31H206.511V14.4473ZM187.171 30.6657V26.2857C187.168 25.9393 186.878 25.6562 186.521 25.6562H182.156C181.799 25.6562 181.509 25.9393 181.509 26.291V28.5815V29.2268H181.506V30.6657L181.509 30.7794C181.509 31.0703 180.742 31.3031 179.795 31.3031C178.847 31.3031 178.083 31.0703 178.083 30.7794L178.08 30.6657V18.7981C178.08 18.5098 178.847 18.2718 179.795 18.2718C180.742 18.2718 181.509 18.5098 181.509 18.7981L181.506 18.9118L181.509 21.1785V23.305C181.509 23.6567 181.799 23.9424 182.156 23.9424H186.521C186.878 23.9424 187.168 23.662 187.171 23.3103V21.3504V18.7981C187.171 18.5098 187.938 18.2718 188.885 18.2718C189.83 18.2718 190.597 18.5098 190.597 18.7981V28.7905L190.594 30.6657L190.597 30.7794C190.597 31.0703 189.83 31.3031 188.885 31.3031C187.938 31.3031 187.171 31.0703 187.171 30.7794V30.6657ZM68.3697 19.2239C70.0172 18.2982 71.391 16.7193 71.391 14.3468C71.391 10.4641 68.1711 7.76367 64.3717 7.76367C61.4712 7.76367 58.6055 9.48019 58.6055 12.3578H58.6216C58.6216 13.7993 59.6305 14.9049 60.8997 14.9049C62.1635 14.9049 63.1911 13.8548 63.1911 12.5588C63.1911 11.9188 62.7296 10.9825 62.3245 10.5567L62.3218 10.554C62.2171 10.4377 62.0991 10.1414 62.4103 9.85315C62.8128 9.51725 63.3628 9.22631 64.4147 9.22631C66.5532 9.22631 67.4896 10.964 67.4896 14.1299C67.4896 16.8859 65.8528 18.5442 63.8619 18.5442C63.6231 18.5442 63.3441 18.4833 63.057 18.4119C62.684 18.2982 62.3137 18.2162 62.0293 18.1819L61.9649 18.1739L61.7476 18.1607C61.0285 18.1607 60.4489 18.7558 60.4489 19.4858C60.4489 20.221 61.0285 20.8162 61.7476 20.8162L61.9381 20.8055C62.5794 20.75 63.3119 20.4538 63.8351 20.4538C66.0675 20.4538 67.4869 22.2946 67.4869 25.3891C67.4869 28.4836 66.5558 30.1446 64.1061 30.6419C63.0409 30.8587 61.4256 30.2874 60.8353 29.4702C60.3845 28.9385 60.6716 28.4836 61.066 28.2244L61.0714 28.2218C61.9112 27.7827 62.4854 26.8914 62.4854 25.8652C62.4854 24.4 61.3263 23.2151 59.8962 23.2151C58.466 23.2151 57.3096 24.4 57.3096 25.8652C57.3096 25.9631 57.3123 26.0609 57.3257 26.1588C57.5001 30.2504 61.2807 32.2367 63.9907 32.2367C68.2516 32.2367 71.9544 29.5601 71.9544 25.1987C71.9544 21.7868 70.4921 20.0518 68.3697 19.2239ZM84.933 19.2239C86.5805 18.2982 87.9516 16.7193 87.9516 14.3468C87.9516 10.4641 84.7318 7.76367 80.9351 7.76367C78.0345 7.76367 75.1662 9.48019 75.1662 12.3578H75.185C75.185 13.7993 76.1912 14.9049 77.4603 14.9049C78.7268 14.9049 79.7545 13.8548 79.7545 12.5588C79.7545 11.9188 79.2903 10.9825 78.8851 10.5567V10.554C78.7805 10.4377 78.6624 10.1414 78.9737 9.85315C79.3761 9.51725 79.9262 9.22631 80.9753 9.22631C83.1165 9.22631 84.0529 10.964 84.0529 14.1299C84.0529 16.8859 82.4135 18.5442 80.4253 18.5442C80.1865 18.5442 79.9074 18.4833 79.6203 18.4119C79.2473 18.2982 78.8771 18.2162 78.5926 18.1819L78.5282 18.1739L78.3109 18.1607C77.5945 18.1607 77.0122 18.7558 77.0122 19.4858C77.0122 20.221 77.5945 20.8162 78.3109 20.8162L78.5041 20.8055C79.14 20.75 79.8725 20.4538 80.3984 20.4538C82.6309 20.4538 84.0503 22.2946 84.0503 25.3891C84.0503 28.4836 83.1192 30.1446 80.6694 30.6419C79.6042 30.8587 77.9889 30.2874 77.3986 29.4702C76.9479 28.9385 77.2323 28.4836 77.6321 28.2244L77.6347 28.2218C78.4719 27.7827 79.0488 26.8914 79.0488 25.8652C79.0488 24.4 77.8896 23.2151 76.4595 23.2151C75.0294 23.2151 73.8702 24.4 73.8702 25.8652C73.8702 25.9631 73.8783 26.0609 73.8863 26.1588C74.0661 30.2504 77.844 32.2367 80.5514 32.2367C84.815 32.2367 88.5178 29.5601 88.5178 25.1987C88.5178 21.7868 87.0554 20.0518 84.933 19.2239ZM157.151 27.7404C156.961 29.1528 155.842 29.6923 154.656 29.6315C153.599 29.5813 151.873 29.4014 151.696 27.8489V26.3678V26.053L151.707 25.9604C151.79 25.6959 151.897 25.4844 152.724 25.4844C153.921 25.4844 155.38 25.4103 156.032 25.733H156.038C156.703 26.0874 157.162 26.7221 157.162 27.5394L157.151 27.7404ZM151.696 22.0698C151.696 20.5279 152.461 20.0227 153.803 19.9565C155.133 19.8931 156.271 20.8188 156.271 21.9878C156.271 22.7998 155.984 23.3288 155.581 23.662C155.112 24.0164 153.843 24.0323 152.724 24.0323C151.922 24.0323 151.699 23.8022 151.699 23.5166H151.696V23.2309V22.0698ZM157.513 24.6142C157.814 24.6142 159.357 23.6197 159.357 21.8053C159.357 20.0941 157.586 18.3088 153.843 18.3088C149.893 18.3088 148.27 19.5678 148.27 20.184V30.663C148.27 31.0148 148.57 31.3004 148.914 31.3004C149.314 31.3004 149.445 30.7847 150.39 30.7847C151.337 30.7847 154.353 31.3057 155.549 31.3057C158.152 31.3057 160.521 29.7796 160.521 27.6717C160.521 25.9498 159.206 24.8099 157.513 24.6142ZM143.107 19.9989C141.522 19.9989 140.239 20.7844 140.239 21.7551L140.266 30.7794C140.266 31.0703 139.496 31.3031 138.546 31.3031C137.593 31.3031 136.823 31.0703 136.823 30.7794L136.829 20.184C136.829 19.1261 139.638 18.2691 143.107 18.2691C144.575 18.2691 146.62 18.6209 146.62 18.6209C147.1 18.7003 147.427 19.1472 147.347 19.6233C147.266 20.0994 146.821 20.4009 146.327 20.3401C145.836 20.2792 145.423 19.9989 143.107 19.9989ZM130.775 30.6657V26.2857C130.773 25.9393 130.486 25.6562 130.129 25.6562H125.766C125.406 25.6562 125.117 25.9393 125.117 26.291V29.2268L125.114 30.6657L125.117 30.7794C125.117 31.0703 124.349 31.3031 123.402 31.3031C122.455 31.3031 121.69 31.0703 121.69 30.7794V18.7981C121.69 18.5098 122.455 18.2718 123.402 18.2718C124.349 18.2718 125.117 18.5098 125.117 18.7981L125.114 18.9118L125.117 21.1785V23.305C125.117 23.6567 125.406 23.9424 125.766 23.9424H130.129C130.486 23.9424 130.773 23.662 130.775 23.3103V21.1785L130.778 18.9118V18.7981C130.778 18.5098 131.545 18.2718 132.493 18.2718C133.437 18.2718 134.204 18.5098 134.204 18.7981V28.7905L134.202 30.6657L134.204 30.7794C134.204 31.0703 133.437 31.3031 132.493 31.3031C131.545 31.3031 130.778 31.0703 130.778 30.7794L130.775 30.6657ZM171.426 18.7981C171.426 18.5098 172.193 18.2744 173.14 18.2744C174.087 18.2744 174.852 18.5098 174.852 18.7981V30.663C174.852 31.0148 174.552 31.2978 174.206 31.2978C173.806 31.2978 173.674 30.7847 172.73 30.7847C171.783 30.7847 171.082 31.3031 168.241 31.3031C164.087 31.3031 162.335 28.4413 162.335 26.0477V18.7981C162.335 18.5098 163.081 18.2744 164.031 18.2744C164.981 18.2744 165.751 18.5098 165.751 18.7981L165.762 18.9118L165.764 23.7017V26.7777C165.764 28.3197 167.031 29.5707 168.595 29.5707C170.157 29.5707 171.423 28.3196 171.423 26.7803L171.426 18.7981ZM116.021 18.7981C116.021 18.5098 116.788 18.2744 117.735 18.2744C118.682 18.2744 119.45 18.5098 119.45 18.7981V30.663C119.45 31.0148 119.146 31.3004 118.803 31.3004C118.4 31.3004 118.269 30.7847 117.325 30.7847C116.38 30.7847 115.68 31.3031 112.836 31.3031C108.682 31.3031 106.933 28.4413 106.933 26.0477V18.7981C106.933 18.5098 107.676 18.2744 108.628 18.2744C109.578 18.2744 110.348 18.5098 110.348 18.7981L110.359 18.9118L110.362 23.7017V26.7777C110.362 28.3197 111.625 29.5707 113.19 29.5707C114.754 29.5707 116.021 28.3196 116.021 26.7803V18.7981ZM101.013 21.7551C101.013 20.7844 99.7281 19.9989 98.1451 19.9989C96.562 19.9989 95.2767 20.7844 95.2767 21.7551L95.3036 30.7794C95.3036 31.0703 94.5335 31.3031 93.5836 31.3031C92.6311 31.3031 91.861 31.0703 91.861 30.7794L91.8691 20.1814C91.8691 19.1261 94.6757 18.2691 98.1451 18.2691C101.612 18.2691 104.421 19.1261 104.421 20.1814L104.416 30.7794C104.416 31.0703 103.643 31.3031 102.696 31.3031C101.743 31.3031 100.973 31.0703 100.973 30.7794L101.013 21.7551ZM203.675 29.8643C204.306 30.8376 205.28 31.3084 206.712 31.3084C208.258 31.3084 209.363 30.2583 209.363 28.9597C209.363 28.6688 209.127 28.436 208.832 28.436C208.54 28.436 208.304 28.6688 208.304 28.9597H208.298C208.298 29.6765 207.606 30.0256 207.195 30.0256C206.356 30.0256 206.141 29.3141 206.141 28.4387V24.7914H206.136C206.136 21.1917 203.176 18.2718 199.524 18.2718C195.872 18.2718 192.913 21.1917 192.913 24.7914C192.913 28.3911 195.872 31.3084 199.524 31.3084C201.096 31.3084 202.54 30.7662 203.675 29.8643Z" fill="#004A56"/>
<defs>
<linearGradient id="paint0_linear_468_20350" x1="-1.49714" y1="15.4843" x2="14.4721" y2="30.1804" gradientUnits="userSpaceOnUse">
<stop stop-color="#1A1A18"/>
<stop offset="1" stop-color="#565655"/>
</linearGradient>
<linearGradient id="paint1_linear_468_20350" x1="47.9002" y1="17.3886" x2="30.6724" y2="32.3654" gradientUnits="userSpaceOnUse">
<stop stop-color="#1A1A18"/>
<stop offset="1" stop-color="#565655"/>
</linearGradient>
<radialGradient id="paint2_radial_468_20350" cx="0" cy="0" r="1" gradientUnits="userSpaceOnUse" gradientTransform="translate(22.8529 14.2474) rotate(-7.40898) scale(425.235 420.893)">
<stop stop-color="white"/>
<stop offset="0.69" stop-color="#FEFFFF"/>
<stop offset="0.91" stop-color="white"/>
<stop offset="1" stop-color="white"/>
</radialGradient>
<radialGradient id="paint3_radial_468_20350" cx="0" cy="0" r="1" gradientUnits="userSpaceOnUse" gradientTransform="translate(19.3262 11.245) rotate(1.99668) scale(3.05616 3.01806)">
<stop stop-color="#ECECEC"/>
<stop offset="1" stop-color="#1A1A18"/>
</radialGradient>
<radialGradient id="paint4_radial_468_20350" cx="0" cy="0" r="1" gradientUnits="userSpaceOnUse" gradientTransform="translate(27.4293 11.2452) rotate(2.01915) scale(3.14257 3.10337)">
<stop stop-color="#ECECEC"/>
<stop offset="1" stop-color="#1A1A18"/>
</radialGradient>
<linearGradient id="paint5_linear_468_20350" x1="18.3852" y1="16.1448" x2="26.8105" y2="16.1448" gradientUnits="userSpaceOnUse">
<stop stop-color="#FFCC00"/>
<stop offset="0.28" stop-color="#FFCC00"/>
<stop offset="0.71" stop-color="#D57F00"/>
<stop offset="1" stop-color="#D57F00"/>
</linearGradient>
<linearGradient id="paint6_linear_468_20350" x1="43.768" y1="18.628" x2="41.3496" y2="22.4681" gradientUnits="userSpaceOnUse">
<stop stop-color="#565655"/>
<stop offset="1" stop-color="#3A3A39"/>
</linearGradient>
<linearGradient id="paint7_linear_468_20350" x1="1.80334" y1="18.8409" x2="5.36989" y2="22.7272" gradientUnits="userSpaceOnUse">
<stop stop-color="#3A3A39"/>
<stop offset="1" stop-color="#565655"/>
</linearGradient>
</defs>
</svg>
