<svg width="16" height="16" viewBox="0 0 16 16" fill="none" xmlns="http://www.w3.org/2000/svg">
<path d="M14.3867 4.56956C14.48 4.25956 14.3867 4.03223 13.9453 4.03223H12.4833C12.1113 4.03223 11.9413 4.22889 11.848 4.44489C11.848 4.44489 11.1047 6.25756 10.0513 7.43289C9.71132 7.77489 9.55598 7.88289 9.37065 7.88289C9.27798 7.88289 9.14332 7.77489 9.14332 7.46489V4.56956C9.14332 4.19756 9.03598 4.03223 8.72598 4.03223H6.42865C6.19665 4.03223 6.05665 4.20423 6.05665 4.36823C6.05665 4.72023 6.58332 4.80156 6.63732 5.79356V7.94556C6.63732 8.41689 6.55265 8.50289 6.36598 8.50289C5.87065 8.50289 4.66532 6.68356 3.94998 4.60089C3.81065 4.19623 3.66998 4.03289 3.29665 4.03289H1.83532C1.41732 4.03289 1.33398 4.22956 1.33398 4.44556C1.33398 4.83356 1.82932 6.75356 3.64132 9.29289C4.84932 11.0269 6.54998 11.9669 8.09932 11.9669C9.02798 11.9669 9.14265 11.7582 9.14265 11.3982V10.0876C9.14265 9.67023 9.23132 9.58623 9.52532 9.58623C9.74132 9.58623 10.1133 9.69556 10.9807 10.5309C11.9713 11.5216 12.1353 11.9662 12.692 11.9662H14.1533C14.5707 11.9662 14.7793 11.7576 14.6593 11.3456C14.528 10.9356 14.0547 10.3389 13.4267 9.63289C13.0853 9.23023 12.5753 8.79689 12.42 8.58023C12.2033 8.30089 12.266 8.17756 12.42 7.92956C12.4207 7.93023 14.2013 5.42223 14.3867 4.56956Z" fill="#004A56"/>
</svg>
