<svg width="16" height="16" viewBox="0 0 16 16" fill="none" xmlns="http://www.w3.org/2000/svg">
<path d="M14.3953 4.80168C14.3194 4.51995 14.171 4.26302 13.9649 4.05646C13.7588 3.8499 13.5022 3.70092 13.2206 3.62435C12.1766 3.33768 7.99998 3.33301 7.99998 3.33301C7.99998 3.33301 3.82398 3.32835 2.77931 3.60235C2.49793 3.68244 2.24186 3.83353 2.03569 4.0411C1.82952 4.24867 1.68017 4.50576 1.60198 4.78768C1.32664 5.83168 1.32398 7.99701 1.32398 7.99701C1.32398 7.99701 1.32131 10.173 1.59464 11.2063C1.74798 11.7777 2.19798 12.229 2.76998 12.383C3.82464 12.6697 7.98998 12.6743 7.98998 12.6743C7.98998 12.6743 12.1666 12.679 13.2106 12.4057C13.4923 12.3292 13.7491 12.1806 13.9557 11.9745C14.1623 11.7683 14.3116 11.5118 14.3886 11.2303C14.6646 10.187 14.6666 8.02235 14.6666 8.02235C14.6666 8.02235 14.68 5.84568 14.3953 4.80168ZM6.66398 10.003L6.66731 6.00301L10.1386 8.00635L6.66398 10.003Z" fill="#004A56"/>
</svg>
