<svg width="16" height="16" viewBox="0 0 16 16" fill="none" xmlns="http://www.w3.org/2000/svg">
<path d="M14.3956 4.80168C14.3196 4.51995 14.1712 4.26302 13.9651 4.05646C13.759 3.8499 13.5024 3.70092 13.2209 3.62435C12.1769 3.33768 8.00022 3.33301 8.00022 3.33301C8.00022 3.33301 3.82422 3.32835 2.77955 3.60235C2.49817 3.68244 2.2421 3.83353 2.03593 4.0411C1.82976 4.24867 1.68041 4.50576 1.60222 4.78768C1.32689 5.83168 1.32422 7.99701 1.32422 7.99701C1.32422 7.99701 1.32155 10.173 1.59489 11.2063C1.74822 11.7777 2.19822 12.229 2.77022 12.383C3.82489 12.6697 7.99022 12.6743 7.99022 12.6743C7.99022 12.6743 12.1669 12.679 13.2109 12.4057C13.4926 12.3292 13.7494 12.1806 13.956 11.9745C14.1626 11.7683 14.3118 11.5118 14.3889 11.2303C14.6649 10.187 14.6669 8.02235 14.6669 8.02235C14.6669 8.02235 14.6802 5.84568 14.3956 4.80168ZM6.66422 10.003L6.66755 6.00301L10.1389 8.00635L6.66422 10.003Z" fill="white"/>
</svg>
