<svg width="18" height="18" viewBox="0 0 18 18" fill="none" xmlns="http://www.w3.org/2000/svg">
<path d="M16.5986 6.56643C16.3259 6.40896 16.0017 6.36629 15.6975 6.4478C15.3933 6.52932 15.1339 6.72834 14.9765 7.00109L13.1952 10.0863L12.5096 9.69047L15.0825 5.23405C15.24 4.9613 15.2827 4.63716 15.2012 4.33295C15.1197 4.02874 14.9206 3.76937 14.6479 3.61189C14.3751 3.45442 14.051 3.41175 13.7468 3.49326C13.4426 3.57478 13.1832 3.7738 13.0257 4.04655L10.4528 8.50297L9.76721 8.10714L12.736 2.96511C12.8934 2.69236 12.9361 2.36823 12.8546 2.06402C12.7731 1.7598 12.5741 1.50043 12.3013 1.34296C12.0286 1.18548 11.7044 1.14281 11.4002 1.22433C11.096 1.30584 10.8366 1.50486 10.6791 1.77761L7.7104 6.91964L7.02479 6.5238L9.20188 2.75299C9.35935 2.48024 9.40202 2.1561 9.32051 1.85189C9.23899 1.54768 9.03997 1.2883 8.76722 1.13083C8.49447 0.973359 8.17034 0.930685 7.86612 1.0122C7.56191 1.09371 7.30254 1.29274 7.14507 1.56549L2.86611 8.97686L2.76907 5.62994C2.7598 5.31425 2.6255 5.01519 2.39572 4.79852C2.16595 4.58186 1.85951 4.46534 1.54383 4.47462C1.22815 4.48389 0.929076 4.61818 0.712412 4.84796C0.495747 5.07774 0.379235 5.38417 0.388507 5.69986L0.544105 10.6712C0.564524 11.3451 0.756724 12.0026 1.10248 12.5813C1.44824 13.1601 1.93609 13.641 2.51979 13.9784L7.46985 16.8363C8.37902 17.3612 9.45946 17.5034 10.4735 17.2317C11.4876 16.96 12.3521 16.2966 12.877 15.3874L17.0333 8.18859C17.1908 7.91584 17.2334 7.5917 17.1519 7.28749C17.0704 6.98328 16.8714 6.72391 16.5986 6.56643Z" fill="#B49630"/>
</svg>
